<?xml version="1.0" encoding="UTF-8"?>
<!DOCTYPE svg PUBLIC "-//W3C//DTD SVG 1.1//EN" "http://www.w3.org/Graphics/SVG/1.1/DTD/svg11.dtd">
<svg xmlns="http://www.w3.org/2000/svg" version="1.1" width="1561px" height="1050px" style="shape-rendering:geometricPrecision; text-rendering:geometricPrecision; image-rendering:optimizeQuality; fill-rule:evenodd; clip-rule:evenodd" xmlns:xlink="http://www.w3.org/1999/xlink">
<g><path style="opacity:1" fill="#fefffe" d="M 150.5,183.5 C 149.167,183.5 147.833,183.5 146.5,183.5C 146.5,168.833 146.5,154.167 146.5,139.5C 145.167,139.5 143.833,139.5 142.5,139.5C 142.5,124.833 142.5,110.167 142.5,95.5C 141.167,95.5 139.833,95.5 138.5,95.5C 138.5,74.1667 138.5,52.8333 138.5,31.5C 139.833,31.5 141.167,31.5 142.5,31.5C 142.5,51.5 142.5,71.5 142.5,91.5C 143.833,91.5 145.167,91.5 146.5,91.5C 146.5,106.167 146.5,120.833 146.5,135.5C 147.833,135.5 149.167,135.5 150.5,135.5C 150.5,151.5 150.5,167.5 150.5,183.5 Z"/></g>
<g><path style="opacity:1" fill="#fefffe" d="M 658.5,119.5 C 657.167,119.5 655.833,119.5 654.5,119.5C 654.5,114.167 654.5,108.833 654.5,103.5C 653.167,103.5 651.833,103.5 650.5,103.5C 650.5,100.833 650.5,98.1667 650.5,95.5C 651.833,95.5 653.167,95.5 654.5,95.5C 654.5,96.8333 654.5,98.1667 654.5,99.5C 655.833,99.5 657.167,99.5 658.5,99.5C 658.5,106.167 658.5,112.833 658.5,119.5 Z"/></g>
<g><path style="opacity:1" fill="#fefffe" d="M 738.5,139.5 C 738.5,130.167 738.5,120.833 738.5,111.5C 739.833,111.5 741.167,111.5 742.5,111.5C 742.5,120.833 742.5,130.167 742.5,139.5C 741.167,139.5 739.833,139.5 738.5,139.5 Z"/></g>
<g><path style="opacity:1" fill="#fefffe" d="M 658.5,119.5 C 659.833,119.5 661.167,119.5 662.5,119.5C 662.5,124.833 662.5,130.167 662.5,135.5C 661.167,135.5 659.833,135.5 658.5,135.5C 658.5,130.167 658.5,124.833 658.5,119.5 Z"/></g>
<g><path style="opacity:1" fill="#fefffe" d="M 662.5,135.5 C 663.833,135.5 665.167,135.5 666.5,135.5C 666.5,139.5 666.5,143.5 666.5,147.5C 667.833,147.5 669.167,147.5 670.5,147.5C 670.5,151.5 670.5,155.5 670.5,159.5C 669.167,159.5 667.833,159.5 666.5,159.5C 666.5,156.833 666.5,154.167 666.5,151.5C 665.167,151.5 663.833,151.5 662.5,151.5C 662.5,146.167 662.5,140.833 662.5,135.5 Z"/></g>
<g><path style="opacity:1" fill="#fefffe" d="M 738.5,139.5 C 738.5,152.833 738.5,166.167 738.5,179.5C 737.167,179.5 735.833,179.5 734.5,179.5C 734.5,166.167 734.5,152.833 734.5,139.5C 735.833,139.5 737.167,139.5 738.5,139.5 Z"/></g>
<g><path style="opacity:1" fill="#fefefe" d="M 1122.5,271.5 C 1122.5,268.833 1122.5,266.167 1122.5,263.5C 1123.83,263.5 1125.17,263.5 1126.5,263.5C 1126.5,260.833 1126.5,258.167 1126.5,255.5C 1127.83,255.5 1129.17,255.5 1130.5,255.5C 1130.5,252.833 1130.5,250.167 1130.5,247.5C 1131.83,247.5 1133.17,247.5 1134.5,247.5C 1134.5,243.5 1134.5,239.5 1134.5,235.5C 1135.83,235.5 1137.17,235.5 1138.5,235.5C 1138.5,230.167 1138.5,224.833 1138.5,219.5C 1139.83,219.5 1141.17,219.5 1142.5,219.5C 1142.5,211.5 1142.5,203.5 1142.5,195.5C 1141.17,195.5 1139.83,195.5 1138.5,195.5C 1138.5,191.5 1138.5,187.5 1138.5,183.5C 1137.17,183.5 1135.83,183.5 1134.5,183.5C 1134.5,180.833 1134.5,178.167 1134.5,175.5C 1133.17,175.5 1131.83,175.5 1130.5,175.5C 1130.5,172.833 1130.5,170.167 1130.5,167.5C 1129.17,167.5 1127.83,167.5 1126.5,167.5C 1126.5,166.167 1126.5,164.833 1126.5,163.5C 1125.17,163.5 1123.83,163.5 1122.5,163.5C 1122.5,162.167 1122.5,160.833 1122.5,159.5C 1121.17,159.5 1119.83,159.5 1118.5,159.5C 1118.5,160.833 1118.5,162.167 1118.5,163.5C 1117.17,163.5 1115.83,163.5 1114.5,163.5C 1114.5,170.167 1114.5,176.833 1114.5,183.5C 1113.17,183.5 1111.83,183.5 1110.5,183.5C 1110.5,204.833 1110.5,226.167 1110.5,247.5C 1109.17,247.5 1107.83,247.5 1106.5,247.5C 1106.5,224.833 1106.5,202.167 1106.5,179.5C 1107.83,179.5 1109.17,179.5 1110.5,179.5C 1110.5,172.833 1110.5,166.167 1110.5,159.5C 1111.83,159.5 1113.17,159.5 1114.5,159.5C 1114.5,158.167 1114.5,156.833 1114.5,155.5C 1118.5,155.5 1122.5,155.5 1126.5,155.5C 1126.5,156.833 1126.5,158.167 1126.5,159.5C 1127.83,159.5 1129.17,159.5 1130.5,159.5C 1130.5,160.833 1130.5,162.167 1130.5,163.5C 1131.83,163.5 1133.17,163.5 1134.5,163.5C 1134.5,166.167 1134.5,168.833 1134.5,171.5C 1135.83,171.5 1137.17,171.5 1138.5,171.5C 1138.5,174.167 1138.5,176.833 1138.5,179.5C 1139.83,179.5 1141.17,179.5 1142.5,179.5C 1142.5,183.5 1142.5,187.5 1142.5,191.5C 1143.83,191.5 1145.17,191.5 1146.5,191.5C 1146.5,202.167 1146.5,212.833 1146.5,223.5C 1145.17,223.5 1143.83,223.5 1142.5,223.5C 1142.5,228.833 1142.5,234.167 1142.5,239.5C 1141.17,239.5 1139.83,239.5 1138.5,239.5C 1138.5,243.5 1138.5,247.5 1138.5,251.5C 1137.17,251.5 1135.83,251.5 1134.5,251.5C 1134.5,254.167 1134.5,256.833 1134.5,259.5C 1133.17,259.5 1131.83,259.5 1130.5,259.5C 1130.5,262.167 1130.5,264.833 1130.5,267.5C 1129.17,267.5 1127.83,267.5 1126.5,267.5C 1126.5,268.833 1126.5,270.167 1126.5,271.5C 1125.17,271.5 1123.83,271.5 1122.5,271.5 Z"/></g>
<g><path style="opacity:1" fill="#fefffe" d="M 670.5,159.5 C 671.833,159.5 673.167,159.5 674.5,159.5C 674.5,162.167 674.5,164.833 674.5,167.5C 675.833,167.5 677.167,167.5 678.5,167.5C 678.5,172.833 678.5,178.167 678.5,183.5C 677.167,183.5 675.833,183.5 674.5,183.5C 674.5,179.5 674.5,175.5 674.5,171.5C 673.167,171.5 671.833,171.5 670.5,171.5C 670.5,167.5 670.5,163.5 670.5,159.5 Z"/></g>
<g><path style="opacity:1" fill="#fefffe" d="M 206.5,195.5 C 203.833,195.5 201.167,195.5 198.5,195.5C 198.5,194.167 198.5,192.833 198.5,191.5C 195.833,191.5 193.167,191.5 190.5,191.5C 190.5,190.167 190.5,188.833 190.5,187.5C 187.833,187.5 185.167,187.5 182.5,187.5C 182.5,186.167 182.5,184.833 182.5,183.5C 178.5,183.5 174.5,183.5 170.5,183.5C 170.5,182.167 170.5,180.833 170.5,179.5C 169.167,179.5 167.833,179.5 166.5,179.5C 166.5,180.833 166.5,182.167 166.5,183.5C 165.167,183.5 163.833,183.5 162.5,183.5C 162.5,184.833 162.5,186.167 162.5,187.5C 161.167,187.5 159.833,187.5 158.5,187.5C 158.5,184.833 158.5,182.167 158.5,179.5C 159.833,179.5 161.167,179.5 162.5,179.5C 162.5,178.167 162.5,176.833 162.5,175.5C 166.5,175.5 170.5,175.5 174.5,175.5C 174.5,176.833 174.5,178.167 174.5,179.5C 178.5,179.5 182.5,179.5 186.5,179.5C 186.5,180.833 186.5,182.167 186.5,183.5C 189.167,183.5 191.833,183.5 194.5,183.5C 194.5,184.833 194.5,186.167 194.5,187.5C 197.167,187.5 199.833,187.5 202.5,187.5C 202.5,188.833 202.5,190.167 202.5,191.5C 203.833,191.5 205.167,191.5 206.5,191.5C 206.5,192.833 206.5,194.167 206.5,195.5 Z"/></g>
<g><path style="opacity:1" fill="#fefffe" d="M 902.5,243.5 C 901.167,243.5 899.833,243.5 898.5,243.5C 898.5,239.5 898.5,235.5 898.5,231.5C 897.167,231.5 895.833,231.5 894.5,231.5C 894.5,238.167 894.5,244.833 894.5,251.5C 893.167,251.5 891.833,251.5 890.5,251.5C 890.5,255.5 890.5,259.5 890.5,263.5C 889.167,263.5 887.833,263.5 886.5,263.5C 886.5,264.833 886.5,266.167 886.5,267.5C 881.167,267.5 875.833,267.5 870.5,267.5C 870.5,264.833 870.5,262.167 870.5,259.5C 869.167,259.5 867.833,259.5 866.5,259.5C 866.5,256.833 866.5,254.167 866.5,251.5C 865.167,251.5 863.833,251.5 862.5,251.5C 862.5,247.5 862.5,243.5 862.5,239.5C 861.167,239.5 859.833,239.5 858.5,239.5C 858.5,232.833 858.5,226.167 858.5,219.5C 857.167,219.5 855.833,219.5 854.5,219.5C 854.5,211.5 854.5,203.5 854.5,195.5C 853.167,195.5 851.833,195.5 850.5,195.5C 850.5,188.833 850.5,182.167 850.5,175.5C 851.833,175.5 853.167,175.5 854.5,175.5C 854.5,180.833 854.5,186.167 854.5,191.5C 855.833,191.5 857.167,191.5 858.5,191.5C 858.5,199.5 858.5,207.5 858.5,215.5C 859.833,215.5 861.167,215.5 862.5,215.5C 862.5,222.167 862.5,228.833 862.5,235.5C 863.833,235.5 865.167,235.5 866.5,235.5C 866.5,239.5 866.5,243.5 866.5,247.5C 867.833,247.5 869.167,247.5 870.5,247.5C 870.5,250.167 870.5,252.833 870.5,255.5C 871.833,255.5 873.167,255.5 874.5,255.5C 874.5,258.167 874.5,260.833 874.5,263.5C 877.167,263.5 879.833,263.5 882.5,263.5C 882.5,262.167 882.5,260.833 882.5,259.5C 883.833,259.5 885.167,259.5 886.5,259.5C 886.5,255.5 886.5,251.5 886.5,247.5C 887.833,247.5 889.167,247.5 890.5,247.5C 890.5,240.833 890.5,234.167 890.5,227.5C 891.833,227.5 893.167,227.5 894.5,227.5C 894.5,222.167 894.5,216.833 894.5,211.5C 895.833,211.5 897.167,211.5 898.5,211.5C 898.5,212.833 898.5,214.167 898.5,215.5C 899.833,215.5 901.167,215.5 902.5,215.5C 902.5,224.833 902.5,234.167 902.5,243.5 Z"/></g>
<g><path style="opacity:1" fill="#fefffe" d="M 734.5,179.5 C 734.5,188.833 734.5,198.167 734.5,207.5C 733.167,207.5 731.833,207.5 730.5,207.5C 730.5,198.167 730.5,188.833 730.5,179.5C 731.833,179.5 733.167,179.5 734.5,179.5 Z"/></g>
<g><path style="opacity:1" fill="#fefffe" d="M 150.5,183.5 C 151.833,183.5 153.167,183.5 154.5,183.5C 154.5,200.833 154.5,218.167 154.5,235.5C 153.167,235.5 151.833,235.5 150.5,235.5C 150.5,218.167 150.5,200.833 150.5,183.5 Z"/></g>
<g><path style="opacity:1" fill="#fefffe" d="M 678.5,183.5 C 679.833,183.5 681.167,183.5 682.5,183.5C 682.5,187.5 682.5,191.5 682.5,195.5C 681.167,195.5 679.833,195.5 678.5,195.5C 678.5,191.5 678.5,187.5 678.5,183.5 Z"/></g>
<g><path style="opacity:1" fill="#fefffe" d="M 206.5,195.5 C 209.167,195.5 211.833,195.5 214.5,195.5C 214.5,196.833 214.5,198.167 214.5,199.5C 215.833,199.5 217.167,199.5 218.5,199.5C 218.5,200.833 218.5,202.167 218.5,203.5C 215.833,203.5 213.167,203.5 210.5,203.5C 210.5,202.167 210.5,200.833 210.5,199.5C 209.167,199.5 207.833,199.5 206.5,199.5C 206.5,198.167 206.5,196.833 206.5,195.5 Z"/></g>
<g><path style="opacity:1" fill="#fefffe" d="M 682.5,195.5 C 683.833,195.5 685.167,195.5 686.5,195.5C 686.5,199.5 686.5,203.5 686.5,207.5C 685.167,207.5 683.833,207.5 682.5,207.5C 682.5,203.5 682.5,199.5 682.5,195.5 Z"/></g>
<g><path style="opacity:1" fill="#fefffe" d="M 902.5,243.5 C 903.833,243.5 905.167,243.5 906.5,243.5C 906.5,250.167 906.5,256.833 906.5,263.5C 907.833,263.5 909.167,263.5 910.5,263.5C 910.5,266.167 910.5,268.833 910.5,271.5C 911.833,271.5 913.167,271.5 914.5,271.5C 914.5,268.833 914.5,266.167 914.5,263.5C 915.833,263.5 917.167,263.5 918.5,263.5C 918.5,258.167 918.5,252.833 918.5,247.5C 919.833,247.5 921.167,247.5 922.5,247.5C 922.5,242.167 922.5,236.833 922.5,231.5C 923.833,231.5 925.167,231.5 926.5,231.5C 926.5,227.5 926.5,223.5 926.5,219.5C 927.833,219.5 929.167,219.5 930.5,219.5C 930.5,215.5 930.5,211.5 930.5,207.5C 931.833,207.5 933.167,207.5 934.5,207.5C 934.5,204.833 934.5,202.167 934.5,199.5C 935.833,199.5 937.167,199.5 938.5,199.5C 938.5,203.5 938.5,207.5 938.5,211.5C 937.167,211.5 935.833,211.5 934.5,211.5C 934.5,215.5 934.5,219.5 934.5,223.5C 933.167,223.5 931.833,223.5 930.5,223.5C 930.5,227.5 930.5,231.5 930.5,235.5C 929.167,235.5 927.833,235.5 926.5,235.5C 926.5,240.833 926.5,246.167 926.5,251.5C 925.167,251.5 923.833,251.5 922.5,251.5C 922.5,256.833 922.5,262.167 922.5,267.5C 921.167,267.5 919.833,267.5 918.5,267.5C 918.5,271.5 918.5,275.5 918.5,279.5C 915.833,279.5 913.167,279.5 910.5,279.5C 910.5,278.167 910.5,276.833 910.5,275.5C 909.167,275.5 907.833,275.5 906.5,275.5C 906.5,272.833 906.5,270.167 906.5,267.5C 905.167,267.5 903.833,267.5 902.5,267.5C 902.5,259.5 902.5,251.5 902.5,243.5 Z"/></g>
<g><path style="opacity:1" fill="#fefffe" d="M 218.5,203.5 C 219.833,203.5 221.167,203.5 222.5,203.5C 222.5,204.833 222.5,206.167 222.5,207.5C 222.5,206.167 222.5,204.833 222.5,203.5C 221.167,203.5 219.833,203.5 218.5,203.5 Z"/></g>
<g><path style="opacity:1" fill="#fefffe" d="M 474.5,263.5 C 473.167,263.5 471.833,263.5 470.5,263.5C 470.5,250.167 470.5,236.833 470.5,223.5C 459.833,223.5 449.167,223.5 438.5,223.5C 438.5,222.167 438.5,220.833 438.5,219.5C 437.167,219.5 435.833,219.5 434.5,219.5C 434.5,218.167 434.5,216.833 434.5,215.5C 437.167,215.5 439.833,215.5 442.5,215.5C 442.5,216.833 442.5,218.167 442.5,219.5C 451.833,219.5 461.167,219.5 470.5,219.5C 470.5,214.167 470.5,208.833 470.5,203.5C 471.833,203.5 473.167,203.5 474.5,203.5C 474.5,207.5 474.5,211.5 474.5,215.5C 494.5,215.5 514.5,215.5 534.5,215.5C 534.5,214.167 534.5,212.833 534.5,211.5C 551.833,211.5 569.167,211.5 586.5,211.5C 586.5,212.833 586.5,214.167 586.5,215.5C 570.5,215.5 554.5,215.5 538.5,215.5C 538.5,216.833 538.5,218.167 538.5,219.5C 518.5,219.5 498.5,219.5 478.5,219.5C 478.5,220.833 478.5,222.167 478.5,223.5C 477.167,223.5 475.833,223.5 474.5,223.5C 474.5,236.833 474.5,250.167 474.5,263.5 Z"/></g>
<g><path style="opacity:1" fill="#fefffe" d="M 222.5,207.5 C 223.833,207.5 225.167,207.5 226.5,207.5C 226.5,208.833 226.5,210.167 226.5,211.5C 227.833,211.5 229.167,211.5 230.5,211.5C 230.5,220.833 230.5,230.167 230.5,239.5C 229.167,239.5 227.833,239.5 226.5,239.5C 226.5,243.5 226.5,247.5 226.5,251.5C 225.167,251.5 223.833,251.5 222.5,251.5C 222.5,252.833 222.5,254.167 222.5,255.5C 221.167,255.5 219.833,255.5 218.5,255.5C 218.5,258.167 218.5,260.833 218.5,263.5C 217.167,263.5 215.833,263.5 214.5,263.5C 214.5,264.833 214.5,266.167 214.5,267.5C 213.167,267.5 211.833,267.5 210.5,267.5C 210.5,268.833 210.5,270.167 210.5,271.5C 209.167,271.5 207.833,271.5 206.5,271.5C 206.5,268.833 206.5,266.167 206.5,263.5C 207.833,263.5 209.167,263.5 210.5,263.5C 210.5,262.167 210.5,260.833 210.5,259.5C 211.833,259.5 213.167,259.5 214.5,259.5C 214.5,256.833 214.5,254.167 214.5,251.5C 215.833,251.5 217.167,251.5 218.5,251.5C 218.5,250.167 218.5,248.833 218.5,247.5C 219.833,247.5 221.167,247.5 222.5,247.5C 222.5,243.5 222.5,239.5 222.5,235.5C 223.833,235.5 225.167,235.5 226.5,235.5C 226.5,228.833 226.5,222.167 226.5,215.5C 225.167,215.5 223.833,215.5 222.5,215.5C 222.5,212.833 222.5,210.167 222.5,207.5 Z"/></g>
<g><path style="opacity:1" fill="#fefffe" d="M 686.5,207.5 C 687.833,207.5 689.167,207.5 690.5,207.5C 690.5,212.833 690.5,218.167 690.5,223.5C 691.833,223.5 693.167,223.5 694.5,223.5C 694.5,228.833 694.5,234.167 694.5,239.5C 693.167,239.5 691.833,239.5 690.5,239.5C 690.5,235.5 690.5,231.5 690.5,227.5C 689.167,227.5 687.833,227.5 686.5,227.5C 686.5,220.833 686.5,214.167 686.5,207.5 Z"/></g>
<g><path style="opacity:1" fill="#fefffe" d="M 730.5,207.5 C 730.5,218.167 730.5,228.833 730.5,239.5C 729.167,239.5 727.833,239.5 726.5,239.5C 726.5,228.833 726.5,218.167 726.5,207.5C 727.833,207.5 729.167,207.5 730.5,207.5 Z"/></g>
<g><path style="opacity:1" fill="#fefefe" d="M 754.5,207.5 C 755.833,207.5 757.167,207.5 758.5,207.5C 758.5,208.833 758.5,210.167 758.5,211.5C 757.167,211.5 755.833,211.5 754.5,211.5C 754.5,210.167 754.5,208.833 754.5,207.5 Z"/></g>
<g><path style="opacity:1" fill="#fefffe" d="M 382.5,259.5 C 379.833,259.5 377.167,259.5 374.5,259.5C 374.5,258.167 374.5,256.833 374.5,255.5C 373.167,255.5 371.833,255.5 370.5,255.5C 370.5,254.167 370.5,252.833 370.5,251.5C 369.167,251.5 367.833,251.5 366.5,251.5C 366.5,247.5 366.5,243.5 366.5,239.5C 367.833,239.5 369.167,239.5 370.5,239.5C 370.5,236.833 370.5,234.167 370.5,231.5C 371.833,231.5 373.167,231.5 374.5,231.5C 374.5,230.167 374.5,228.833 374.5,227.5C 375.833,227.5 377.167,227.5 378.5,227.5C 378.5,226.167 378.5,224.833 378.5,223.5C 381.167,223.5 383.833,223.5 386.5,223.5C 386.5,222.167 386.5,220.833 386.5,219.5C 387.833,219.5 389.167,219.5 390.5,219.5C 390.5,218.167 390.5,216.833 390.5,215.5C 398.5,215.5 406.5,215.5 414.5,215.5C 414.5,216.833 414.5,218.167 414.5,219.5C 407.833,219.5 401.167,219.5 394.5,219.5C 394.5,220.833 394.5,222.167 394.5,223.5C 393.167,223.5 391.833,223.5 390.5,223.5C 390.5,224.833 390.5,226.167 390.5,227.5C 387.833,227.5 385.167,227.5 382.5,227.5C 382.5,228.833 382.5,230.167 382.5,231.5C 381.167,231.5 379.833,231.5 378.5,231.5C 378.5,232.833 378.5,234.167 378.5,235.5C 377.167,235.5 375.833,235.5 374.5,235.5C 374.5,238.167 374.5,240.833 374.5,243.5C 373.167,243.5 371.833,243.5 370.5,243.5C 370.5,244.833 370.5,246.167 370.5,247.5C 371.833,247.5 373.167,247.5 374.5,247.5C 374.5,248.833 374.5,250.167 374.5,251.5C 375.833,251.5 377.167,251.5 378.5,251.5C 378.5,252.833 378.5,254.167 378.5,255.5C 379.833,255.5 381.167,255.5 382.5,255.5C 382.5,256.833 382.5,258.167 382.5,259.5 Z"/></g>
<g><path style="opacity:1" fill="#fefffe" d="M 274.5,271.5 C 274.5,272.833 274.5,274.167 274.5,275.5C 273.167,275.5 271.833,275.5 270.5,275.5C 270.5,276.833 270.5,278.167 270.5,279.5C 269.167,279.5 267.833,279.5 266.5,279.5C 266.5,280.833 266.5,282.167 266.5,283.5C 262.5,283.5 258.5,283.5 254.5,283.5C 254.5,287.5 254.5,291.5 254.5,295.5C 255.833,295.5 257.167,295.5 258.5,295.5C 258.5,298.167 258.5,300.833 258.5,303.5C 259.833,303.5 261.167,303.5 262.5,303.5C 262.5,304.833 262.5,306.167 262.5,307.5C 273.167,307.5 283.833,307.5 294.5,307.5C 294.5,306.167 294.5,304.833 294.5,303.5C 297.167,303.5 299.833,303.5 302.5,303.5C 302.5,304.833 302.5,306.167 302.5,307.5C 301.167,307.5 299.833,307.5 298.5,307.5C 298.5,308.833 298.5,310.167 298.5,311.5C 285.167,311.5 271.833,311.5 258.5,311.5C 258.5,310.167 258.5,308.833 258.5,307.5C 257.167,307.5 255.833,307.5 254.5,307.5C 254.5,304.833 254.5,302.167 254.5,299.5C 253.167,299.5 251.833,299.5 250.5,299.5C 250.5,294.167 250.5,288.833 250.5,283.5C 249.167,283.5 247.833,283.5 246.5,283.5C 246.5,282.167 246.5,280.833 246.5,279.5C 245.167,279.5 243.833,279.5 242.5,279.5C 242.5,276.833 242.5,274.167 242.5,271.5C 243.833,271.5 245.167,271.5 246.5,271.5C 246.5,272.833 246.5,274.167 246.5,275.5C 247.833,275.5 249.167,275.5 250.5,275.5C 250.5,270.167 250.5,264.833 250.5,259.5C 251.833,259.5 253.167,259.5 254.5,259.5C 254.5,255.5 254.5,251.5 254.5,247.5C 255.833,247.5 257.167,247.5 258.5,247.5C 258.5,243.5 258.5,239.5 258.5,235.5C 259.833,235.5 261.167,235.5 262.5,235.5C 262.5,234.167 262.5,232.833 262.5,231.5C 263.833,231.5 265.167,231.5 266.5,231.5C 266.5,230.167 266.5,228.833 266.5,227.5C 267.833,227.5 269.167,227.5 270.5,227.5C 270.5,226.167 270.5,224.833 270.5,223.5C 275.833,223.5 281.167,223.5 286.5,223.5C 286.5,224.833 286.5,226.167 286.5,227.5C 287.833,227.5 289.167,227.5 290.5,227.5C 290.5,236.833 290.5,246.167 290.5,255.5C 289.167,255.5 287.833,255.5 286.5,255.5C 286.5,258.167 286.5,260.833 286.5,263.5C 285.167,263.5 283.833,263.5 282.5,263.5C 282.5,264.833 282.5,266.167 282.5,267.5C 281.167,267.5 279.833,267.5 278.5,267.5C 278.5,268.833 278.5,270.167 278.5,271.5C 277.167,271.5 275.833,271.5 274.5,271.5 Z M 274.5,271.5 C 271.833,271.5 269.167,271.5 266.5,271.5C 266.5,272.833 266.5,274.167 266.5,275.5C 265.167,275.5 263.833,275.5 262.5,275.5C 262.5,276.833 262.5,278.167 262.5,279.5C 259.833,279.5 257.167,279.5 254.5,279.5C 254.5,274.167 254.5,268.833 254.5,263.5C 255.833,263.5 257.167,263.5 258.5,263.5C 258.5,259.5 258.5,255.5 258.5,251.5C 259.833,251.5 261.167,251.5 262.5,251.5C 262.5,247.5 262.5,243.5 262.5,239.5C 263.833,239.5 265.167,239.5 266.5,239.5C 266.5,238.167 266.5,236.833 266.5,235.5C 267.833,235.5 269.167,235.5 270.5,235.5C 270.5,234.167 270.5,232.833 270.5,231.5C 271.833,231.5 273.167,231.5 274.5,231.5C 274.5,230.167 274.5,228.833 274.5,227.5C 277.167,227.5 279.833,227.5 282.5,227.5C 282.5,228.833 282.5,230.167 282.5,231.5C 283.833,231.5 285.167,231.5 286.5,231.5C 286.5,238.167 286.5,244.833 286.5,251.5C 285.167,251.5 283.833,251.5 282.5,251.5C 282.5,254.167 282.5,256.833 282.5,259.5C 281.167,259.5 279.833,259.5 278.5,259.5C 278.5,260.833 278.5,262.167 278.5,263.5C 277.167,263.5 275.833,263.5 274.5,263.5C 274.5,266.167 274.5,268.833 274.5,271.5 Z"/></g>
<g><path style="opacity:1" fill="#fefffe" d="M 154.5,235.5 C 155.833,235.5 157.167,235.5 158.5,235.5C 158.5,234.167 158.5,232.833 158.5,231.5C 159.833,231.5 161.167,231.5 162.5,231.5C 162.5,251.5 162.5,271.5 162.5,291.5C 161.167,291.5 159.833,291.5 158.5,291.5C 158.5,299.5 158.5,307.5 158.5,315.5C 157.167,315.5 155.833,315.5 154.5,315.5C 154.5,288.833 154.5,262.167 154.5,235.5 Z"/></g>
<g><path style="opacity:1" fill="#fefffe" d="M 962.5,255.5 C 962.5,258.167 962.5,260.833 962.5,263.5C 961.167,263.5 959.833,263.5 958.5,263.5C 958.5,264.833 958.5,266.167 958.5,267.5C 957.167,267.5 955.833,267.5 954.5,267.5C 954.5,271.5 954.5,275.5 954.5,279.5C 953.167,279.5 951.833,279.5 950.5,279.5C 950.5,276.833 950.5,274.167 950.5,271.5C 949.167,271.5 947.833,271.5 946.5,271.5C 946.5,270.167 946.5,268.833 946.5,267.5C 947.833,267.5 949.167,267.5 950.5,267.5C 950.5,263.5 950.5,259.5 950.5,255.5C 951.833,255.5 953.167,255.5 954.5,255.5C 954.5,252.833 954.5,250.167 954.5,247.5C 955.833,247.5 957.167,247.5 958.5,247.5C 958.5,244.833 958.5,242.167 958.5,239.5C 959.833,239.5 961.167,239.5 962.5,239.5C 962.5,238.167 962.5,236.833 962.5,235.5C 963.833,235.5 965.167,235.5 966.5,235.5C 966.5,242.167 966.5,248.833 966.5,255.5C 965.167,255.5 963.833,255.5 962.5,255.5 Z M 962.5,255.5 C 961.167,255.5 959.833,255.5 958.5,255.5C 958.5,254.167 958.5,252.833 958.5,251.5C 959.833,251.5 961.167,251.5 962.5,251.5C 962.5,252.833 962.5,254.167 962.5,255.5 Z"/></g>
<g><path style="opacity:1" fill="#fefffe" d="M 694.5,239.5 C 695.833,239.5 697.167,239.5 698.5,239.5C 698.5,243.5 698.5,247.5 698.5,251.5C 699.833,251.5 701.167,251.5 702.5,251.5C 702.5,255.5 702.5,259.5 702.5,263.5C 703.833,263.5 705.167,263.5 706.5,263.5C 706.5,270.167 706.5,276.833 706.5,283.5C 705.167,283.5 703.833,283.5 702.5,283.5C 702.5,278.167 702.5,272.833 702.5,267.5C 701.167,267.5 699.833,267.5 698.5,267.5C 698.5,263.5 698.5,259.5 698.5,255.5C 697.167,255.5 695.833,255.5 694.5,255.5C 694.5,250.167 694.5,244.833 694.5,239.5 Z"/></g>
<g><path style="opacity:1" fill="#fefffe" d="M 726.5,239.5 C 726.5,251.5 726.5,263.5 726.5,275.5C 725.167,275.5 723.833,275.5 722.5,275.5C 722.5,290.167 722.5,304.833 722.5,319.5C 721.167,319.5 719.833,319.5 718.5,319.5C 718.5,323.5 718.5,327.5 718.5,331.5C 717.167,331.5 715.833,331.5 714.5,331.5C 714.5,327.5 714.5,323.5 714.5,319.5C 713.167,319.5 711.833,319.5 710.5,319.5C 710.5,312.833 710.5,306.167 710.5,299.5C 711.833,299.5 713.167,299.5 714.5,299.5C 714.5,304.833 714.5,310.167 714.5,315.5C 715.833,315.5 717.167,315.5 718.5,315.5C 718.5,300.833 718.5,286.167 718.5,271.5C 719.833,271.5 721.167,271.5 722.5,271.5C 722.5,260.833 722.5,250.167 722.5,239.5C 723.833,239.5 725.167,239.5 726.5,239.5 Z"/></g>
<g><path style="opacity:1" fill="#fefefe" d="M 758.5,275.5 C 757.167,275.5 755.833,275.5 754.5,275.5C 754.5,264.833 754.5,254.167 754.5,243.5C 753.167,243.5 751.833,243.5 750.5,243.5C 750.5,242.167 750.5,240.833 750.5,239.5C 753.167,239.5 755.833,239.5 758.5,239.5C 758.5,251.5 758.5,263.5 758.5,275.5 Z"/></g>
<g><path style="opacity:1" fill="#fefffe" d="M 786.5,287.5 C 785.167,287.5 783.833,287.5 782.5,287.5C 782.5,286.167 782.5,284.833 782.5,283.5C 781.167,283.5 779.833,283.5 778.5,283.5C 778.5,279.5 778.5,275.5 778.5,271.5C 775.833,271.5 773.167,271.5 770.5,271.5C 770.5,270.167 770.5,268.833 770.5,267.5C 774.5,267.5 778.5,267.5 782.5,267.5C 782.5,264.833 782.5,262.167 782.5,259.5C 783.833,259.5 785.167,259.5 786.5,259.5C 786.5,256.833 786.5,254.167 786.5,251.5C 787.833,251.5 789.167,251.5 790.5,251.5C 790.5,250.167 790.5,248.833 790.5,247.5C 791.833,247.5 793.167,247.5 794.5,247.5C 794.5,246.167 794.5,244.833 794.5,243.5C 798.5,243.5 802.5,243.5 806.5,243.5C 806.5,248.833 806.5,254.167 806.5,259.5C 805.167,259.5 803.833,259.5 802.5,259.5C 802.5,260.833 802.5,262.167 802.5,263.5C 801.167,263.5 799.833,263.5 798.5,263.5C 798.5,264.833 798.5,266.167 798.5,267.5C 797.167,267.5 795.833,267.5 794.5,267.5C 794.5,268.833 794.5,270.167 794.5,271.5C 791.833,271.5 789.167,271.5 786.5,271.5C 786.5,272.833 786.5,274.167 786.5,275.5C 785.167,275.5 783.833,275.5 782.5,275.5C 782.5,276.833 782.5,278.167 782.5,279.5C 783.833,279.5 785.167,279.5 786.5,279.5C 786.5,282.167 786.5,284.833 786.5,287.5 Z M 786.5,259.5 C 787.833,259.5 789.167,259.5 790.5,259.5C 790.5,258.167 790.5,256.833 790.5,255.5C 791.833,255.5 793.167,255.5 794.5,255.5C 794.5,254.167 794.5,252.833 794.5,251.5C 795.833,251.5 797.167,251.5 798.5,251.5C 798.5,250.167 798.5,248.833 798.5,247.5C 799.833,247.5 801.167,247.5 802.5,247.5C 802.5,250.167 802.5,252.833 802.5,255.5C 801.167,255.5 799.833,255.5 798.5,255.5C 798.5,256.833 798.5,258.167 798.5,259.5C 797.167,259.5 795.833,259.5 794.5,259.5C 794.5,260.833 794.5,262.167 794.5,263.5C 793.167,263.5 791.833,263.5 790.5,263.5C 790.5,264.833 790.5,266.167 790.5,267.5C 789.167,267.5 787.833,267.5 786.5,267.5C 786.5,264.833 786.5,262.167 786.5,259.5 Z"/></g>
<g><path style="opacity:1" fill="#fefffe" d="M 1110.5,247.5 C 1111.83,247.5 1113.17,247.5 1114.5,247.5C 1114.5,251.5 1114.5,255.5 1114.5,259.5C 1115.83,259.5 1117.17,259.5 1118.5,259.5C 1118.5,263.5 1118.5,267.5 1118.5,271.5C 1119.83,271.5 1121.17,271.5 1122.5,271.5C 1122.5,274.167 1122.5,276.833 1122.5,279.5C 1123.83,279.5 1125.17,279.5 1126.5,279.5C 1126.5,282.167 1126.5,284.833 1126.5,287.5C 1125.17,287.5 1123.83,287.5 1122.5,287.5C 1122.5,286.167 1122.5,284.833 1122.5,283.5C 1119.83,283.5 1117.17,283.5 1114.5,283.5C 1114.5,284.833 1114.5,286.167 1114.5,287.5C 1113.17,287.5 1111.83,287.5 1110.5,287.5C 1110.5,288.833 1110.5,290.167 1110.5,291.5C 1109.17,291.5 1107.83,291.5 1106.5,291.5C 1106.5,288.833 1106.5,286.167 1106.5,283.5C 1107.83,283.5 1109.17,283.5 1110.5,283.5C 1110.5,282.167 1110.5,280.833 1110.5,279.5C 1111.83,279.5 1113.17,279.5 1114.5,279.5C 1114.5,274.167 1114.5,268.833 1114.5,263.5C 1113.17,263.5 1111.83,263.5 1110.5,263.5C 1110.5,258.167 1110.5,252.833 1110.5,247.5 Z"/></g>
<g><path style="opacity:1" fill="#fefffe" d="M 382.5,259.5 C 385.167,259.5 387.833,259.5 390.5,259.5C 390.5,260.833 390.5,262.167 390.5,263.5C 393.167,263.5 395.833,263.5 398.5,263.5C 398.5,264.833 398.5,266.167 398.5,267.5C 401.167,267.5 403.833,267.5 406.5,267.5C 406.5,268.833 406.5,270.167 406.5,271.5C 409.167,271.5 411.833,271.5 414.5,271.5C 414.5,272.833 414.5,274.167 414.5,275.5C 415.833,275.5 417.167,275.5 418.5,275.5C 418.5,276.833 418.5,278.167 418.5,279.5C 419.833,279.5 421.167,279.5 422.5,279.5C 422.5,283.5 422.5,287.5 422.5,291.5C 418.5,291.5 414.5,291.5 410.5,291.5C 410.5,290.167 410.5,288.833 410.5,287.5C 413.167,287.5 415.833,287.5 418.5,287.5C 418.5,286.167 418.5,284.833 418.5,283.5C 417.167,283.5 415.833,283.5 414.5,283.5C 414.5,282.167 414.5,280.833 414.5,279.5C 413.167,279.5 411.833,279.5 410.5,279.5C 410.5,278.167 410.5,276.833 410.5,275.5C 407.833,275.5 405.167,275.5 402.5,275.5C 402.5,274.167 402.5,272.833 402.5,271.5C 399.833,271.5 397.167,271.5 394.5,271.5C 394.5,270.167 394.5,268.833 394.5,267.5C 391.833,267.5 389.167,267.5 386.5,267.5C 386.5,266.167 386.5,264.833 386.5,263.5C 385.167,263.5 383.833,263.5 382.5,263.5C 382.5,262.167 382.5,260.833 382.5,259.5 Z"/></g>
<g><path style="opacity:1" fill="#fefffe" d="M 474.5,263.5 C 475.833,263.5 477.167,263.5 478.5,263.5C 478.5,266.167 478.5,268.833 478.5,271.5C 479.833,271.5 481.167,271.5 482.5,271.5C 482.5,272.833 482.5,274.167 482.5,275.5C 483.833,275.5 485.167,275.5 486.5,275.5C 486.5,276.833 486.5,278.167 486.5,279.5C 487.833,279.5 489.167,279.5 490.5,279.5C 490.5,280.833 490.5,282.167 490.5,283.5C 491.833,283.5 493.167,283.5 494.5,283.5C 494.5,284.833 494.5,286.167 494.5,287.5C 497.167,287.5 499.833,287.5 502.5,287.5C 502.5,288.833 502.5,290.167 502.5,291.5C 507.833,291.5 513.167,291.5 518.5,291.5C 518.5,292.833 518.5,294.167 518.5,295.5C 525.167,295.5 531.833,295.5 538.5,295.5C 538.5,296.833 538.5,298.167 538.5,299.5C 530.5,299.5 522.5,299.5 514.5,299.5C 514.5,298.167 514.5,296.833 514.5,295.5C 509.167,295.5 503.833,295.5 498.5,295.5C 498.5,294.167 498.5,292.833 498.5,291.5C 495.833,291.5 493.167,291.5 490.5,291.5C 490.5,290.167 490.5,288.833 490.5,287.5C 489.167,287.5 487.833,287.5 486.5,287.5C 486.5,286.167 486.5,284.833 486.5,283.5C 485.167,283.5 483.833,283.5 482.5,283.5C 482.5,282.167 482.5,280.833 482.5,279.5C 481.167,279.5 479.833,279.5 478.5,279.5C 478.5,278.167 478.5,276.833 478.5,275.5C 477.167,275.5 475.833,275.5 474.5,275.5C 474.5,271.5 474.5,267.5 474.5,263.5 Z"/></g>
<g><path style="opacity:1" fill="#fefffe" d="M 1106.5,291.5 C 1106.5,292.833 1106.5,294.167 1106.5,295.5C 1105.17,295.5 1103.83,295.5 1102.5,295.5C 1102.5,296.833 1102.5,298.167 1102.5,299.5C 1101.17,299.5 1099.83,299.5 1098.5,299.5C 1098.5,300.833 1098.5,302.167 1098.5,303.5C 1091.83,303.5 1085.17,303.5 1078.5,303.5C 1078.5,302.167 1078.5,300.833 1078.5,299.5C 1077.17,299.5 1075.83,299.5 1074.5,299.5C 1074.5,294.167 1074.5,288.833 1074.5,283.5C 1075.83,283.5 1077.17,283.5 1078.5,283.5C 1078.5,280.833 1078.5,278.167 1078.5,275.5C 1079.83,275.5 1081.17,275.5 1082.5,275.5C 1082.5,274.167 1082.5,272.833 1082.5,271.5C 1085.17,271.5 1087.83,271.5 1090.5,271.5C 1090.5,270.167 1090.5,268.833 1090.5,267.5C 1094.5,267.5 1098.5,267.5 1102.5,267.5C 1102.5,268.833 1102.5,270.167 1102.5,271.5C 1099.83,271.5 1097.17,271.5 1094.5,271.5C 1094.5,272.833 1094.5,274.167 1094.5,275.5C 1091.83,275.5 1089.17,275.5 1086.5,275.5C 1086.5,276.833 1086.5,278.167 1086.5,279.5C 1085.17,279.5 1083.83,279.5 1082.5,279.5C 1082.5,282.167 1082.5,284.833 1082.5,287.5C 1081.17,287.5 1079.83,287.5 1078.5,287.5C 1078.5,290.167 1078.5,292.833 1078.5,295.5C 1079.83,295.5 1081.17,295.5 1082.5,295.5C 1082.5,296.833 1082.5,298.167 1082.5,299.5C 1086.5,299.5 1090.5,299.5 1094.5,299.5C 1094.5,298.167 1094.5,296.833 1094.5,295.5C 1095.83,295.5 1097.17,295.5 1098.5,295.5C 1098.5,294.167 1098.5,292.833 1098.5,291.5C 1101.17,291.5 1103.83,291.5 1106.5,291.5 Z"/></g>
<g><path style="opacity:1" fill="#fefffe" d="M 206.5,271.5 C 206.5,272.833 206.5,274.167 206.5,275.5C 205.167,275.5 203.833,275.5 202.5,275.5C 202.5,274.167 202.5,272.833 202.5,271.5C 203.833,271.5 205.167,271.5 206.5,271.5 Z"/></g>
<g><path style="opacity:1" fill="#fefffe" d="M 202.5,275.5 C 202.5,276.833 202.5,278.167 202.5,279.5C 201.167,279.5 199.833,279.5 198.5,279.5C 198.5,278.167 198.5,276.833 198.5,275.5C 199.833,275.5 201.167,275.5 202.5,275.5 Z"/></g>
<g><path style="opacity:1" fill="#fefffe" d="M 758.5,275.5 C 759.833,275.5 761.167,275.5 762.5,275.5C 762.5,283.5 762.5,291.5 762.5,299.5C 761.167,299.5 759.833,299.5 758.5,299.5C 758.5,291.5 758.5,283.5 758.5,275.5 Z"/></g>
<g><path style="opacity:1" fill="#fefffe" d="M 198.5,279.5 C 198.5,280.833 198.5,282.167 198.5,283.5C 197.167,283.5 195.833,283.5 194.5,283.5C 194.5,282.167 194.5,280.833 194.5,279.5C 195.833,279.5 197.167,279.5 198.5,279.5 Z"/></g>
<g><path style="opacity:1" fill="#fefffe" d="M 302.5,303.5 C 302.5,302.167 302.5,300.833 302.5,299.5C 303.833,299.5 305.167,299.5 306.5,299.5C 306.5,298.167 306.5,296.833 306.5,295.5C 307.833,295.5 309.167,295.5 310.5,295.5C 310.5,292.833 310.5,290.167 310.5,287.5C 311.833,287.5 313.167,287.5 314.5,287.5C 314.5,284.833 314.5,282.167 314.5,279.5C 315.833,279.5 317.167,279.5 318.5,279.5C 318.5,283.5 318.5,287.5 318.5,291.5C 317.167,291.5 315.833,291.5 314.5,291.5C 314.5,294.167 314.5,296.833 314.5,299.5C 313.167,299.5 311.833,299.5 310.5,299.5C 310.5,300.833 310.5,302.167 310.5,303.5C 307.833,303.5 305.167,303.5 302.5,303.5 Z"/></g>
<g><path style="opacity:1" fill="#fefffe" d="M 538.5,295.5 C 538.5,294.167 538.5,292.833 538.5,291.5C 541.167,291.5 543.833,291.5 546.5,291.5C 546.5,290.167 546.5,288.833 546.5,287.5C 547.833,287.5 549.167,287.5 550.5,287.5C 550.5,284.833 550.5,282.167 550.5,279.5C 551.833,279.5 553.167,279.5 554.5,279.5C 554.5,283.5 554.5,287.5 554.5,291.5C 553.167,291.5 551.833,291.5 550.5,291.5C 550.5,292.833 550.5,294.167 550.5,295.5C 546.5,295.5 542.5,295.5 538.5,295.5 Z"/></g>
<g><path style="opacity:1" fill="#fefffe" d="M 794.5,291.5 C 802.5,291.5 810.5,291.5 818.5,291.5C 818.5,292.833 818.5,294.167 818.5,295.5C 822.5,295.5 826.5,295.5 830.5,295.5C 830.5,294.167 830.5,292.833 830.5,291.5C 835.833,291.5 841.167,291.5 846.5,291.5C 846.5,290.167 846.5,288.833 846.5,287.5C 850.5,287.5 854.5,287.5 858.5,287.5C 858.5,286.167 858.5,284.833 858.5,283.5C 861.167,283.5 863.833,283.5 866.5,283.5C 866.5,282.167 866.5,280.833 866.5,279.5C 867.833,279.5 869.167,279.5 870.5,279.5C 870.5,282.167 870.5,284.833 870.5,287.5C 867.833,287.5 865.167,287.5 862.5,287.5C 862.5,288.833 862.5,290.167 862.5,291.5C 858.5,291.5 854.5,291.5 850.5,291.5C 850.5,292.833 850.5,294.167 850.5,295.5C 845.167,295.5 839.833,295.5 834.5,295.5C 834.5,296.833 834.5,298.167 834.5,299.5C 827.833,299.5 821.167,299.5 814.5,299.5C 814.5,298.167 814.5,296.833 814.5,295.5C 807.833,295.5 801.167,295.5 794.5,295.5C 794.5,294.167 794.5,292.833 794.5,291.5 Z"/></g>
<g><path style="opacity:1" fill="#fefffe" d="M 950.5,279.5 C 950.5,283.5 950.5,287.5 950.5,291.5C 949.167,291.5 947.833,291.5 946.5,291.5C 946.5,287.5 946.5,283.5 946.5,279.5C 947.833,279.5 949.167,279.5 950.5,279.5 Z"/></g>
<g><path style="opacity:1" fill="#fefffe" d="M 1014.5,291.5 C 1014.5,290.167 1014.5,288.833 1014.5,287.5C 1017.17,287.5 1019.83,287.5 1022.5,287.5C 1022.5,286.167 1022.5,284.833 1022.5,283.5C 1025.17,283.5 1027.83,283.5 1030.5,283.5C 1030.5,282.167 1030.5,280.833 1030.5,279.5C 1033.17,279.5 1035.83,279.5 1038.5,279.5C 1038.5,280.833 1038.5,282.167 1038.5,283.5C 1037.17,283.5 1035.83,283.5 1034.5,283.5C 1034.5,284.833 1034.5,286.167 1034.5,287.5C 1031.83,287.5 1029.17,287.5 1026.5,287.5C 1026.5,288.833 1026.5,290.167 1026.5,291.5C 1022.5,291.5 1018.5,291.5 1014.5,291.5 Z"/></g>
<g><path style="opacity:1" fill="#fefffe" d="M 194.5,283.5 C 194.5,286.167 194.5,288.833 194.5,291.5C 193.167,291.5 191.833,291.5 190.5,291.5C 190.5,292.833 190.5,294.167 190.5,295.5C 189.167,295.5 187.833,295.5 186.5,295.5C 186.5,296.833 186.5,298.167 186.5,299.5C 185.167,299.5 183.833,299.5 182.5,299.5C 182.5,302.167 182.5,304.833 182.5,307.5C 181.167,307.5 179.833,307.5 178.5,307.5C 178.5,308.833 178.5,310.167 178.5,311.5C 177.167,311.5 175.833,311.5 174.5,311.5C 174.5,308.833 174.5,306.167 174.5,303.5C 175.833,303.5 177.167,303.5 178.5,303.5C 178.5,300.833 178.5,298.167 178.5,295.5C 179.833,295.5 181.167,295.5 182.5,295.5C 182.5,294.167 182.5,292.833 182.5,291.5C 183.833,291.5 185.167,291.5 186.5,291.5C 186.5,290.167 186.5,288.833 186.5,287.5C 187.833,287.5 189.167,287.5 190.5,287.5C 190.5,286.167 190.5,284.833 190.5,283.5C 191.833,283.5 193.167,283.5 194.5,283.5 Z"/></g>
<g><path style="opacity:1" fill="#fefffe" d="M 706.5,283.5 C 707.833,283.5 709.167,283.5 710.5,283.5C 710.5,288.833 710.5,294.167 710.5,299.5C 709.167,299.5 707.833,299.5 706.5,299.5C 706.5,294.167 706.5,288.833 706.5,283.5 Z"/></g>
<g><path style="opacity:1" fill="#fefffe" d="M 786.5,287.5 C 789.167,287.5 791.833,287.5 794.5,287.5C 794.5,288.833 794.5,290.167 794.5,291.5C 791.833,291.5 789.167,291.5 786.5,291.5C 786.5,290.167 786.5,288.833 786.5,287.5 Z"/></g>
<g><path style="opacity:1" fill="#fefefe" d="M 1126.5,287.5 C 1127.83,287.5 1129.17,287.5 1130.5,287.5C 1130.5,288.833 1130.5,290.167 1130.5,291.5C 1131.83,291.5 1133.17,291.5 1134.5,291.5C 1134.5,294.167 1134.5,296.833 1134.5,299.5C 1133.17,299.5 1131.83,299.5 1130.5,299.5C 1130.5,298.167 1130.5,296.833 1130.5,295.5C 1129.17,295.5 1127.83,295.5 1126.5,295.5C 1126.5,292.833 1126.5,290.167 1126.5,287.5 Z"/></g>
<g><path style="opacity:1" fill="#fefffe" d="M 410.5,291.5 C 410.5,292.833 410.5,294.167 410.5,295.5C 395.833,295.5 381.167,295.5 366.5,295.5C 366.5,294.167 366.5,292.833 366.5,291.5C 381.167,291.5 395.833,291.5 410.5,291.5 Z"/></g>
<g><path style="opacity:1" fill="#fefffe" d="M 950.5,291.5 C 951.833,291.5 953.167,291.5 954.5,291.5C 954.5,292.833 954.5,294.167 954.5,295.5C 955.833,295.5 957.167,295.5 958.5,295.5C 958.5,296.833 958.5,298.167 958.5,299.5C 969.167,299.5 979.833,299.5 990.5,299.5C 990.5,298.167 990.5,296.833 990.5,295.5C 994.5,295.5 998.5,295.5 1002.5,295.5C 1002.5,294.167 1002.5,292.833 1002.5,291.5C 1006.5,291.5 1010.5,291.5 1014.5,291.5C 1014.5,292.833 1014.5,294.167 1014.5,295.5C 1011.83,295.5 1009.17,295.5 1006.5,295.5C 1006.5,296.833 1006.5,298.167 1006.5,299.5C 1002.5,299.5 998.5,299.5 994.5,299.5C 994.5,300.833 994.5,302.167 994.5,303.5C 981.167,303.5 967.833,303.5 954.5,303.5C 954.5,302.167 954.5,300.833 954.5,299.5C 953.167,299.5 951.833,299.5 950.5,299.5C 950.5,296.833 950.5,294.167 950.5,291.5 Z"/></g>
<g><path style="opacity:1" fill="#fefffe" d="M 366.5,295.5 C 366.5,296.833 366.5,298.167 366.5,299.5C 358.5,299.5 350.5,299.5 342.5,299.5C 342.5,300.833 342.5,302.167 342.5,303.5C 338.5,303.5 334.5,303.5 330.5,303.5C 330.5,304.833 330.5,306.167 330.5,307.5C 339.833,307.5 349.167,307.5 358.5,307.5C 358.5,308.833 358.5,310.167 358.5,311.5C 346.5,311.5 334.5,311.5 322.5,311.5C 322.5,308.833 322.5,306.167 322.5,303.5C 323.833,303.5 325.167,303.5 326.5,303.5C 326.5,302.167 326.5,300.833 326.5,299.5C 330.5,299.5 334.5,299.5 338.5,299.5C 338.5,298.167 338.5,296.833 338.5,295.5C 347.833,295.5 357.167,295.5 366.5,295.5 Z"/></g>
<g><path style="opacity:1" fill="#fefffe" d="M 1134.5,299.5 C 1135.83,299.5 1137.17,299.5 1138.5,299.5C 1138.5,300.833 1138.5,302.167 1138.5,303.5C 1138.5,302.167 1138.5,300.833 1138.5,299.5C 1137.17,299.5 1135.83,299.5 1134.5,299.5 Z"/></g>
<g><path style="opacity:1" fill="#fefffe" d="M 1138.5,303.5 C 1139.83,303.5 1141.17,303.5 1142.5,303.5C 1142.5,304.833 1142.5,306.167 1142.5,307.5C 1143.83,307.5 1145.17,307.5 1146.5,307.5C 1146.5,308.833 1146.5,310.167 1146.5,311.5C 1147.83,311.5 1149.17,311.5 1150.5,311.5C 1150.5,312.833 1150.5,314.167 1150.5,315.5C 1153.17,315.5 1155.83,315.5 1158.5,315.5C 1158.5,316.833 1158.5,318.167 1158.5,319.5C 1159.83,319.5 1161.17,319.5 1162.5,319.5C 1162.5,320.833 1162.5,322.167 1162.5,323.5C 1159.83,323.5 1157.17,323.5 1154.5,323.5C 1154.5,322.167 1154.5,320.833 1154.5,319.5C 1151.83,319.5 1149.17,319.5 1146.5,319.5C 1146.5,318.167 1146.5,316.833 1146.5,315.5C 1145.17,315.5 1143.83,315.5 1142.5,315.5C 1142.5,314.167 1142.5,312.833 1142.5,311.5C 1141.17,311.5 1139.83,311.5 1138.5,311.5C 1138.5,308.833 1138.5,306.167 1138.5,303.5 Z"/></g>
<g><path style="opacity:1" fill="#fefffe" d="M 1162.5,323.5 C 1166.5,323.5 1170.5,323.5 1174.5,323.5C 1174.5,324.833 1174.5,326.167 1174.5,327.5C 1179.83,327.5 1185.17,327.5 1190.5,327.5C 1190.5,328.833 1190.5,330.167 1190.5,331.5C 1194.5,331.5 1198.5,331.5 1202.5,331.5C 1202.5,330.167 1202.5,328.833 1202.5,327.5C 1205.17,327.5 1207.83,327.5 1210.5,327.5C 1210.5,326.167 1210.5,324.833 1210.5,323.5C 1211.83,323.5 1213.17,323.5 1214.5,323.5C 1214.5,322.167 1214.5,320.833 1214.5,319.5C 1215.83,319.5 1217.17,319.5 1218.5,319.5C 1218.5,322.167 1218.5,324.833 1218.5,327.5C 1217.17,327.5 1215.83,327.5 1214.5,327.5C 1214.5,328.833 1214.5,330.167 1214.5,331.5C 1211.83,331.5 1209.17,331.5 1206.5,331.5C 1206.5,332.833 1206.5,334.167 1206.5,335.5C 1199.83,335.5 1193.17,335.5 1186.5,335.5C 1186.5,334.167 1186.5,332.833 1186.5,331.5C 1181.17,331.5 1175.83,331.5 1170.5,331.5C 1170.5,330.167 1170.5,328.833 1170.5,327.5C 1167.83,327.5 1165.17,327.5 1162.5,327.5C 1162.5,326.167 1162.5,324.833 1162.5,323.5 Z"/></g>
<g><path style="opacity:1" fill="#fefffe" d="M 450.5,355.5 C 451.833,355.5 453.167,355.5 454.5,355.5C 454.5,356.833 454.5,358.167 454.5,359.5C 455.833,359.5 457.167,359.5 458.5,359.5C 458.5,363.5 458.5,367.5 458.5,371.5C 457.167,371.5 455.833,371.5 454.5,371.5C 454.5,372.833 454.5,374.167 454.5,375.5C 449.167,375.5 443.833,375.5 438.5,375.5C 438.5,372.833 438.5,370.167 438.5,367.5C 439.833,367.5 441.167,367.5 442.5,367.5C 442.5,366.167 442.5,364.833 442.5,363.5C 443.833,363.5 445.167,363.5 446.5,363.5C 446.5,362.167 446.5,360.833 446.5,359.5C 447.833,359.5 449.167,359.5 450.5,359.5C 450.5,358.167 450.5,356.833 450.5,355.5 Z"/></g>
<g><path style="opacity:1" fill="#fefffe" d="M 518.5,363.5 C 521.167,363.5 523.833,363.5 526.5,363.5C 526.5,370.167 526.5,376.833 526.5,383.5C 527.833,383.5 529.167,383.5 530.5,383.5C 530.5,382.167 530.5,380.833 530.5,379.5C 534.5,379.5 538.5,379.5 542.5,379.5C 542.5,378.167 542.5,376.833 542.5,375.5C 550.5,375.5 558.5,375.5 566.5,375.5C 566.5,376.833 566.5,378.167 566.5,379.5C 569.167,379.5 571.833,379.5 574.5,379.5C 574.5,380.833 574.5,382.167 574.5,383.5C 577.167,383.5 579.833,383.5 582.5,383.5C 582.5,384.833 582.5,386.167 582.5,387.5C 585.167,387.5 587.833,387.5 590.5,387.5C 590.5,388.833 590.5,390.167 590.5,391.5C 591.833,391.5 593.167,391.5 594.5,391.5C 594.5,392.833 594.5,394.167 594.5,395.5C 595.833,395.5 597.167,395.5 598.5,395.5C 598.5,396.833 598.5,398.167 598.5,399.5C 599.833,399.5 601.167,399.5 602.5,399.5C 602.5,407.5 602.5,415.5 602.5,423.5C 601.167,423.5 599.833,423.5 598.5,423.5C 598.5,424.833 598.5,426.167 598.5,427.5C 599.833,427.5 601.167,427.5 602.5,427.5C 602.5,432.833 602.5,438.167 602.5,443.5C 603.833,443.5 605.167,443.5 606.5,443.5C 606.5,444.833 606.5,446.167 606.5,447.5C 602.5,447.5 598.5,447.5 594.5,447.5C 594.5,442.167 594.5,436.833 594.5,431.5C 593.167,431.5 591.833,431.5 590.5,431.5C 590.5,427.5 590.5,423.5 590.5,419.5C 591.833,419.5 593.167,419.5 594.5,419.5C 594.5,414.167 594.5,408.833 594.5,403.5C 593.167,403.5 591.833,403.5 590.5,403.5C 590.5,402.167 590.5,400.833 590.5,399.5C 589.167,399.5 587.833,399.5 586.5,399.5C 586.5,398.167 586.5,396.833 586.5,395.5C 583.833,395.5 581.167,395.5 578.5,395.5C 578.5,394.167 578.5,392.833 578.5,391.5C 577.167,391.5 575.833,391.5 574.5,391.5C 574.5,390.167 574.5,388.833 574.5,387.5C 570.5,387.5 566.5,387.5 562.5,387.5C 562.5,386.167 562.5,384.833 562.5,383.5C 557.167,383.5 551.833,383.5 546.5,383.5C 546.5,384.833 546.5,386.167 546.5,387.5C 542.5,387.5 538.5,387.5 534.5,387.5C 534.5,388.833 534.5,390.167 534.5,391.5C 533.167,391.5 531.833,391.5 530.5,391.5C 530.5,396.833 530.5,402.167 530.5,407.5C 529.167,407.5 527.833,407.5 526.5,407.5C 526.5,416.833 526.5,426.167 526.5,435.5C 525.167,435.5 523.833,435.5 522.5,435.5C 522.5,438.167 522.5,440.833 522.5,443.5C 521.167,443.5 519.833,443.5 518.5,443.5C 518.5,444.833 518.5,446.167 518.5,447.5C 517.167,447.5 515.833,447.5 514.5,447.5C 514.5,448.833 514.5,450.167 514.5,451.5C 511.833,451.5 509.167,451.5 506.5,451.5C 506.5,448.833 506.5,446.167 506.5,443.5C 507.833,443.5 509.167,443.5 510.5,443.5C 510.5,442.167 510.5,440.833 510.5,439.5C 511.833,439.5 513.167,439.5 514.5,439.5C 514.5,436.833 514.5,434.167 514.5,431.5C 515.833,431.5 517.167,431.5 518.5,431.5C 518.5,408.833 518.5,386.167 518.5,363.5 Z"/></g>
<g><path style="opacity:1" fill="#fefffe" d="M 462.5,391.5 C 467.833,391.5 473.167,391.5 478.5,391.5C 478.5,392.833 478.5,394.167 478.5,395.5C 479.833,395.5 481.167,395.5 482.5,395.5C 482.5,396.833 482.5,398.167 482.5,399.5C 481.167,399.5 479.833,399.5 478.5,399.5C 478.5,400.833 478.5,402.167 478.5,403.5C 473.167,403.5 467.833,403.5 462.5,403.5C 462.5,404.833 462.5,406.167 462.5,407.5C 463.833,407.5 465.167,407.5 466.5,407.5C 466.5,418.167 466.5,428.833 466.5,439.5C 465.167,439.5 463.833,439.5 462.5,439.5C 462.5,440.833 462.5,442.167 462.5,443.5C 467.833,443.5 473.167,443.5 478.5,443.5C 478.5,444.833 478.5,446.167 478.5,447.5C 479.833,447.5 481.167,447.5 482.5,447.5C 482.5,448.833 482.5,450.167 482.5,451.5C 475.833,451.5 469.167,451.5 462.5,451.5C 462.5,452.833 462.5,454.167 462.5,455.5C 455.833,455.5 449.167,455.5 442.5,455.5C 442.5,454.167 442.5,452.833 442.5,451.5C 443.833,451.5 445.167,451.5 446.5,451.5C 446.5,450.167 446.5,448.833 446.5,447.5C 447.833,447.5 449.167,447.5 450.5,447.5C 450.5,444.833 450.5,442.167 450.5,439.5C 451.833,439.5 453.167,439.5 454.5,439.5C 454.5,438.167 454.5,436.833 454.5,435.5C 455.833,435.5 457.167,435.5 458.5,435.5C 458.5,427.5 458.5,419.5 458.5,411.5C 457.167,411.5 455.833,411.5 454.5,411.5C 454.5,408.833 454.5,406.167 454.5,403.5C 449.167,403.5 443.833,403.5 438.5,403.5C 438.5,402.167 438.5,400.833 438.5,399.5C 439.833,399.5 441.167,399.5 442.5,399.5C 442.5,398.167 442.5,396.833 442.5,395.5C 449.167,395.5 455.833,395.5 462.5,395.5C 462.5,394.167 462.5,392.833 462.5,391.5 Z"/></g>
<g><path style="opacity:1" fill="#fefffe" d="M 154.5,531.5 C 153.167,531.5 151.833,531.5 150.5,531.5C 150.5,520.833 150.5,510.167 150.5,499.5C 149.167,499.5 147.833,499.5 146.5,499.5C 146.5,498.167 146.5,496.833 146.5,495.5C 162.5,495.5 178.5,495.5 194.5,495.5C 194.5,494.167 194.5,492.833 194.5,491.5C 214.5,491.5 234.5,491.5 254.5,491.5C 254.5,492.833 254.5,494.167 254.5,495.5C 259.833,495.5 265.167,495.5 270.5,495.5C 270.5,496.833 270.5,498.167 270.5,499.5C 263.833,499.5 257.167,499.5 250.5,499.5C 250.5,498.167 250.5,496.833 250.5,495.5C 233.167,495.5 215.833,495.5 198.5,495.5C 198.5,496.833 198.5,498.167 198.5,499.5C 183.833,499.5 169.167,499.5 154.5,499.5C 154.5,510.167 154.5,520.833 154.5,531.5 Z"/></g>
<g><path style="opacity:1" fill="#fefffe" d="M 146.5,499.5 C 146.5,500.833 146.5,502.167 146.5,503.5C 138.5,503.5 130.5,503.5 122.5,503.5C 122.5,504.833 122.5,506.167 122.5,507.5C 117.167,507.5 111.833,507.5 106.5,507.5C 106.5,508.833 106.5,510.167 106.5,511.5C 103.833,511.5 101.167,511.5 98.5,511.5C 98.5,510.167 98.5,508.833 98.5,507.5C 99.8333,507.5 101.167,507.5 102.5,507.5C 102.5,506.167 102.5,504.833 102.5,503.5C 107.833,503.5 113.167,503.5 118.5,503.5C 118.5,502.167 118.5,500.833 118.5,499.5C 127.833,499.5 137.167,499.5 146.5,499.5 Z"/></g>
<g><path style="opacity:1" fill="#fefffe" d="M 390.5,527.5 C 391.833,527.5 393.167,527.5 394.5,527.5C 394.5,538.167 394.5,548.833 394.5,559.5C 393.167,559.5 391.833,559.5 390.5,559.5C 390.5,587.5 390.5,615.5 390.5,643.5C 389.167,643.5 387.833,643.5 386.5,643.5C 386.5,668.833 386.5,694.167 386.5,719.5C 387.833,719.5 389.167,719.5 390.5,719.5C 390.5,722.167 390.5,724.833 390.5,727.5C 391.833,727.5 393.167,727.5 394.5,727.5C 394.5,730.167 394.5,732.833 394.5,735.5C 395.833,735.5 397.167,735.5 398.5,735.5C 398.5,736.833 398.5,738.167 398.5,739.5C 401.167,739.5 403.833,739.5 406.5,739.5C 406.5,740.833 406.5,742.167 406.5,743.5C 417.167,743.5 427.833,743.5 438.5,743.5C 438.5,744.833 438.5,746.167 438.5,747.5C 426.5,747.5 414.5,747.5 402.5,747.5C 402.5,746.167 402.5,744.833 402.5,743.5C 399.833,743.5 397.167,743.5 394.5,743.5C 394.5,742.167 394.5,740.833 394.5,739.5C 393.167,739.5 391.833,739.5 390.5,739.5C 390.5,736.833 390.5,734.167 390.5,731.5C 389.167,731.5 387.833,731.5 386.5,731.5C 386.5,728.833 386.5,726.167 386.5,723.5C 385.167,723.5 383.833,723.5 382.5,723.5C 382.5,695.5 382.5,667.5 382.5,639.5C 383.833,639.5 385.167,639.5 386.5,639.5C 386.5,611.5 386.5,583.5 386.5,555.5C 387.833,555.5 389.167,555.5 390.5,555.5C 390.5,546.167 390.5,536.833 390.5,527.5 Z"/></g>
<g><path style="opacity:1" fill="#fefffe" d="M 154.5,531.5 C 155.833,531.5 157.167,531.5 158.5,531.5C 158.5,542.167 158.5,552.833 158.5,563.5C 159.833,563.5 161.167,563.5 162.5,563.5C 162.5,576.833 162.5,590.167 162.5,603.5C 161.167,603.5 159.833,603.5 158.5,603.5C 158.5,591.5 158.5,579.5 158.5,567.5C 157.167,567.5 155.833,567.5 154.5,567.5C 154.5,555.5 154.5,543.5 154.5,531.5 Z"/></g>
<g><path style="opacity:1" fill="#fefffe" d="M 458.5,535.5 C 459.833,535.5 461.167,535.5 462.5,535.5C 462.5,539.5 462.5,543.5 462.5,547.5C 463.833,547.5 465.167,547.5 466.5,547.5C 466.5,588.833 466.5,630.167 466.5,671.5C 467.833,671.5 469.167,671.5 470.5,671.5C 470.5,683.5 470.5,695.5 470.5,707.5C 471.833,707.5 473.167,707.5 474.5,707.5C 474.5,718.167 474.5,728.833 474.5,739.5C 475.833,739.5 477.167,739.5 478.5,739.5C 478.5,743.5 478.5,747.5 478.5,751.5C 479.833,751.5 481.167,751.5 482.5,751.5C 482.5,754.167 482.5,756.833 482.5,759.5C 483.833,759.5 485.167,759.5 486.5,759.5C 486.5,760.833 486.5,762.167 486.5,763.5C 495.833,763.5 505.167,763.5 514.5,763.5C 514.5,762.167 514.5,760.833 514.5,759.5C 521.167,759.5 527.833,759.5 534.5,759.5C 534.5,760.833 534.5,762.167 534.5,763.5C 529.167,763.5 523.833,763.5 518.5,763.5C 518.5,764.833 518.5,766.167 518.5,767.5C 506.5,767.5 494.5,767.5 482.5,767.5C 482.5,766.167 482.5,764.833 482.5,763.5C 481.167,763.5 479.833,763.5 478.5,763.5C 478.5,760.833 478.5,758.167 478.5,755.5C 477.167,755.5 475.833,755.5 474.5,755.5C 474.5,751.5 474.5,747.5 474.5,743.5C 473.167,743.5 471.833,743.5 470.5,743.5C 470.5,732.833 470.5,722.167 470.5,711.5C 469.167,711.5 467.833,711.5 466.5,711.5C 466.5,699.5 466.5,687.5 466.5,675.5C 465.167,675.5 463.833,675.5 462.5,675.5C 462.5,634.167 462.5,592.833 462.5,551.5C 461.167,551.5 459.833,551.5 458.5,551.5C 458.5,546.167 458.5,540.833 458.5,535.5 Z"/></g>
<g><path style="opacity:1" fill="#fefffe" d="M 810.5,551.5 C 810.5,550.167 810.5,548.833 810.5,547.5C 814.5,547.5 818.5,547.5 822.5,547.5C 822.5,546.167 822.5,544.833 822.5,543.5C 829.167,543.5 835.833,543.5 842.5,543.5C 842.5,544.833 842.5,546.167 842.5,547.5C 837.167,547.5 831.833,547.5 826.5,547.5C 826.5,548.833 826.5,550.167 826.5,551.5C 821.167,551.5 815.833,551.5 810.5,551.5 Z"/></g>
<g><path style="opacity:1" fill="#fefffe" d="M 810.5,551.5 C 810.5,552.833 810.5,554.167 810.5,555.5C 807.833,555.5 805.167,555.5 802.5,555.5C 802.5,556.833 802.5,558.167 802.5,559.5C 799.833,559.5 797.167,559.5 794.5,559.5C 794.5,558.167 794.5,556.833 794.5,555.5C 795.833,555.5 797.167,555.5 798.5,555.5C 798.5,554.167 798.5,552.833 798.5,551.5C 802.5,551.5 806.5,551.5 810.5,551.5 Z"/></g>
<g><path style="opacity:1" fill="#fefffe" d="M 794.5,559.5 C 794.5,560.833 794.5,562.167 794.5,563.5C 793.167,563.5 791.833,563.5 790.5,563.5C 790.5,564.833 790.5,566.167 790.5,567.5C 789.167,567.5 787.833,567.5 786.5,567.5C 786.5,568.833 786.5,570.167 786.5,571.5C 783.833,571.5 781.167,571.5 778.5,571.5C 778.5,570.167 778.5,568.833 778.5,567.5C 779.833,567.5 781.167,567.5 782.5,567.5C 782.5,566.167 782.5,564.833 782.5,563.5C 783.833,563.5 785.167,563.5 786.5,563.5C 786.5,562.167 786.5,560.833 786.5,559.5C 789.167,559.5 791.833,559.5 794.5,559.5 Z"/></g>
<g><path style="opacity:1" fill="#fefffe" d="M 778.5,571.5 C 778.5,574.167 778.5,576.833 778.5,579.5C 777.167,579.5 775.833,579.5 774.5,579.5C 774.5,580.833 774.5,582.167 774.5,583.5C 773.167,583.5 771.833,583.5 770.5,583.5C 770.5,580.833 770.5,578.167 770.5,575.5C 771.833,575.5 773.167,575.5 774.5,575.5C 774.5,574.167 774.5,572.833 774.5,571.5C 775.833,571.5 777.167,571.5 778.5,571.5 Z"/></g>
<g><path style="opacity:1" fill="#fefffe" d="M 770.5,583.5 C 770.5,586.167 770.5,588.833 770.5,591.5C 769.167,591.5 767.833,591.5 766.5,591.5C 766.5,595.5 766.5,599.5 766.5,603.5C 765.167,603.5 763.833,603.5 762.5,603.5C 762.5,608.833 762.5,614.167 762.5,619.5C 763.833,619.5 765.167,619.5 766.5,619.5C 766.5,622.167 766.5,624.833 766.5,627.5C 767.833,627.5 769.167,627.5 770.5,627.5C 770.5,628.833 770.5,630.167 770.5,631.5C 771.833,631.5 773.167,631.5 774.5,631.5C 774.5,632.833 774.5,634.167 774.5,635.5C 775.833,635.5 777.167,635.5 778.5,635.5C 778.5,636.833 778.5,638.167 778.5,639.5C 779.833,639.5 781.167,639.5 782.5,639.5C 782.5,640.833 782.5,642.167 782.5,643.5C 783.833,643.5 785.167,643.5 786.5,643.5C 786.5,644.833 786.5,646.167 786.5,647.5C 789.167,647.5 791.833,647.5 794.5,647.5C 794.5,648.833 794.5,650.167 794.5,651.5C 795.833,651.5 797.167,651.5 798.5,651.5C 798.5,652.833 798.5,654.167 798.5,655.5C 795.833,655.5 793.167,655.5 790.5,655.5C 790.5,654.167 790.5,652.833 790.5,651.5C 787.833,651.5 785.167,651.5 782.5,651.5C 782.5,650.167 782.5,648.833 782.5,647.5C 781.167,647.5 779.833,647.5 778.5,647.5C 778.5,646.167 778.5,644.833 778.5,643.5C 777.167,643.5 775.833,643.5 774.5,643.5C 774.5,642.167 774.5,640.833 774.5,639.5C 773.167,639.5 771.833,639.5 770.5,639.5C 770.5,638.167 770.5,636.833 770.5,635.5C 769.167,635.5 767.833,635.5 766.5,635.5C 766.5,634.167 766.5,632.833 766.5,631.5C 765.167,631.5 763.833,631.5 762.5,631.5C 762.5,628.833 762.5,626.167 762.5,623.5C 761.167,623.5 759.833,623.5 758.5,623.5C 758.5,615.5 758.5,607.5 758.5,599.5C 759.833,599.5 761.167,599.5 762.5,599.5C 762.5,595.5 762.5,591.5 762.5,587.5C 763.833,587.5 765.167,587.5 766.5,587.5C 766.5,586.167 766.5,584.833 766.5,583.5C 767.833,583.5 769.167,583.5 770.5,583.5 Z"/></g>
<g><path style="opacity:1" fill="#fefffe" d="M 970.5,595.5 C 971.833,595.5 973.167,595.5 974.5,595.5C 974.5,604.833 974.5,614.167 974.5,623.5C 975.833,623.5 977.167,623.5 978.5,623.5C 978.5,636.833 978.5,650.167 978.5,663.5C 979.833,663.5 981.167,663.5 982.5,663.5C 982.5,654.167 982.5,644.833 982.5,635.5C 983.833,635.5 985.167,635.5 986.5,635.5C 986.5,631.5 986.5,627.5 986.5,623.5C 987.833,623.5 989.167,623.5 990.5,623.5C 990.5,622.167 990.5,620.833 990.5,619.5C 995.833,619.5 1001.17,619.5 1006.5,619.5C 1006.5,620.833 1006.5,622.167 1006.5,623.5C 1011.83,623.5 1017.17,623.5 1022.5,623.5C 1022.5,624.833 1022.5,626.167 1022.5,627.5C 1025.17,627.5 1027.83,627.5 1030.5,627.5C 1030.5,628.833 1030.5,630.167 1030.5,631.5C 1033.17,631.5 1035.83,631.5 1038.5,631.5C 1038.5,632.833 1038.5,634.167 1038.5,635.5C 1039.83,635.5 1041.17,635.5 1042.5,635.5C 1042.5,636.833 1042.5,638.167 1042.5,639.5C 1043.83,639.5 1045.17,639.5 1046.5,639.5C 1046.5,640.833 1046.5,642.167 1046.5,643.5C 1043.83,643.5 1041.17,643.5 1038.5,643.5C 1038.5,642.167 1038.5,640.833 1038.5,639.5C 1037.17,639.5 1035.83,639.5 1034.5,639.5C 1034.5,638.167 1034.5,636.833 1034.5,635.5C 1031.83,635.5 1029.17,635.5 1026.5,635.5C 1026.5,634.167 1026.5,632.833 1026.5,631.5C 1023.83,631.5 1021.17,631.5 1018.5,631.5C 1018.5,630.167 1018.5,628.833 1018.5,627.5C 1013.17,627.5 1007.83,627.5 1002.5,627.5C 1002.5,626.167 1002.5,624.833 1002.5,623.5C 999.833,623.5 997.167,623.5 994.5,623.5C 994.5,624.833 994.5,626.167 994.5,627.5C 993.167,627.5 991.833,627.5 990.5,627.5C 990.5,631.5 990.5,635.5 990.5,639.5C 989.167,639.5 987.833,639.5 986.5,639.5C 986.5,656.833 986.5,674.167 986.5,691.5C 987.833,691.5 989.167,691.5 990.5,691.5C 990.5,698.167 990.5,704.833 990.5,711.5C 989.167,711.5 987.833,711.5 986.5,711.5C 986.5,710.167 986.5,708.833 986.5,707.5C 985.167,707.5 983.833,707.5 982.5,707.5C 982.5,703.5 982.5,699.5 982.5,695.5C 981.167,695.5 979.833,695.5 978.5,695.5C 978.5,688.833 978.5,682.167 978.5,675.5C 977.167,675.5 975.833,675.5 974.5,675.5C 974.5,663.5 974.5,651.5 974.5,639.5C 973.167,639.5 971.833,639.5 970.5,639.5C 970.5,624.833 970.5,610.167 970.5,595.5 Z"/></g>
<g><path style="opacity:1" fill="#fefffe" d="M 162.5,603.5 C 163.833,603.5 165.167,603.5 166.5,603.5C 166.5,606.167 166.5,608.833 166.5,611.5C 178.5,611.5 190.5,611.5 202.5,611.5C 202.5,610.167 202.5,608.833 202.5,607.5C 226.5,607.5 250.5,607.5 274.5,607.5C 274.5,606.167 274.5,604.833 274.5,603.5C 290.5,603.5 306.5,603.5 322.5,603.5C 322.5,604.833 322.5,606.167 322.5,607.5C 307.833,607.5 293.167,607.5 278.5,607.5C 278.5,608.833 278.5,610.167 278.5,611.5C 254.5,611.5 230.5,611.5 206.5,611.5C 206.5,612.833 206.5,614.167 206.5,615.5C 193.167,615.5 179.833,615.5 166.5,615.5C 166.5,624.833 166.5,634.167 166.5,643.5C 165.167,643.5 163.833,643.5 162.5,643.5C 162.5,634.167 162.5,624.833 162.5,615.5C 161.167,615.5 159.833,615.5 158.5,615.5C 158.5,616.833 158.5,618.167 158.5,619.5C 151.833,619.5 145.167,619.5 138.5,619.5C 138.5,620.833 138.5,622.167 138.5,623.5C 135.833,623.5 133.167,623.5 130.5,623.5C 130.5,622.167 130.5,620.833 130.5,619.5C 131.833,619.5 133.167,619.5 134.5,619.5C 134.5,618.167 134.5,616.833 134.5,615.5C 141.167,615.5 147.833,615.5 154.5,615.5C 154.5,614.167 154.5,612.833 154.5,611.5C 157.167,611.5 159.833,611.5 162.5,611.5C 162.5,608.833 162.5,606.167 162.5,603.5 Z"/></g>
<g><path style="opacity:1" fill="#fefffe" d="M 1334.5,627.5 C 1334.5,624.833 1334.5,622.167 1334.5,619.5C 1337.17,619.5 1339.83,619.5 1342.5,619.5C 1342.5,618.167 1342.5,616.833 1342.5,615.5C 1353.17,615.5 1363.83,615.5 1374.5,615.5C 1374.5,616.833 1374.5,618.167 1374.5,619.5C 1375.83,619.5 1377.17,619.5 1378.5,619.5C 1378.5,622.167 1378.5,624.833 1378.5,627.5C 1379.83,627.5 1381.17,627.5 1382.5,627.5C 1382.5,631.5 1382.5,635.5 1382.5,639.5C 1383.83,639.5 1385.17,639.5 1386.5,639.5C 1386.5,643.5 1386.5,647.5 1386.5,651.5C 1387.83,651.5 1389.17,651.5 1390.5,651.5C 1390.5,659.5 1390.5,667.5 1390.5,675.5C 1391.83,675.5 1393.17,675.5 1394.5,675.5C 1394.5,680.833 1394.5,686.167 1394.5,691.5C 1395.83,691.5 1397.17,691.5 1398.5,691.5C 1398.5,698.167 1398.5,704.833 1398.5,711.5C 1399.83,711.5 1401.17,711.5 1402.5,711.5C 1402.5,714.167 1402.5,716.833 1402.5,719.5C 1401.17,719.5 1399.83,719.5 1398.5,719.5C 1398.5,718.167 1398.5,716.833 1398.5,715.5C 1397.17,715.5 1395.83,715.5 1394.5,715.5C 1394.5,708.833 1394.5,702.167 1394.5,695.5C 1393.17,695.5 1391.83,695.5 1390.5,695.5C 1390.5,690.167 1390.5,684.833 1390.5,679.5C 1389.17,679.5 1387.83,679.5 1386.5,679.5C 1386.5,671.5 1386.5,663.5 1386.5,655.5C 1385.17,655.5 1383.83,655.5 1382.5,655.5C 1382.5,651.5 1382.5,647.5 1382.5,643.5C 1381.17,643.5 1379.83,643.5 1378.5,643.5C 1378.5,639.5 1378.5,635.5 1378.5,631.5C 1377.17,631.5 1375.83,631.5 1374.5,631.5C 1374.5,628.833 1374.5,626.167 1374.5,623.5C 1373.17,623.5 1371.83,623.5 1370.5,623.5C 1370.5,622.167 1370.5,620.833 1370.5,619.5C 1362.5,619.5 1354.5,619.5 1346.5,619.5C 1346.5,620.833 1346.5,622.167 1346.5,623.5C 1343.83,623.5 1341.17,623.5 1338.5,623.5C 1338.5,624.833 1338.5,626.167 1338.5,627.5C 1337.17,627.5 1335.83,627.5 1334.5,627.5 Z"/></g>
<g><path style="opacity:1" fill="#fefffe" d="M 878.5,631.5 C 878.5,630.167 878.5,628.833 878.5,627.5C 881.167,627.5 883.833,627.5 886.5,627.5C 886.5,626.167 886.5,624.833 886.5,623.5C 891.833,623.5 897.167,623.5 902.5,623.5C 902.5,622.167 902.5,620.833 902.5,619.5C 907.833,619.5 913.167,619.5 918.5,619.5C 918.5,620.833 918.5,622.167 918.5,623.5C 921.167,623.5 923.833,623.5 926.5,623.5C 926.5,624.833 926.5,626.167 926.5,627.5C 922.5,627.5 918.5,627.5 914.5,627.5C 914.5,626.167 914.5,624.833 914.5,623.5C 911.833,623.5 909.167,623.5 906.5,623.5C 906.5,624.833 906.5,626.167 906.5,627.5C 901.167,627.5 895.833,627.5 890.5,627.5C 890.5,628.833 890.5,630.167 890.5,631.5C 886.5,631.5 882.5,631.5 878.5,631.5 Z"/></g>
<g><path style="opacity:1" fill="#fefffe" d="M 1334.5,627.5 C 1334.5,630.167 1334.5,632.833 1334.5,635.5C 1333.17,635.5 1331.83,635.5 1330.5,635.5C 1330.5,659.5 1330.5,683.5 1330.5,707.5C 1329.17,707.5 1327.83,707.5 1326.5,707.5C 1326.5,682.167 1326.5,656.833 1326.5,631.5C 1327.83,631.5 1329.17,631.5 1330.5,631.5C 1330.5,630.167 1330.5,628.833 1330.5,627.5C 1331.83,627.5 1333.17,627.5 1334.5,627.5 Z"/></g>
<g><path style="opacity:1" fill="#fefffe" d="M 878.5,631.5 C 878.5,634.167 878.5,636.833 878.5,639.5C 877.167,639.5 875.833,639.5 874.5,639.5C 874.5,643.5 874.5,647.5 874.5,651.5C 873.167,651.5 871.833,651.5 870.5,651.5C 870.5,660.833 870.5,670.167 870.5,679.5C 869.167,679.5 867.833,679.5 866.5,679.5C 866.5,668.833 866.5,658.167 866.5,647.5C 867.833,647.5 869.167,647.5 870.5,647.5C 870.5,643.5 870.5,639.5 870.5,635.5C 871.833,635.5 873.167,635.5 874.5,635.5C 874.5,634.167 874.5,632.833 874.5,631.5C 875.833,631.5 877.167,631.5 878.5,631.5 Z"/></g>
<g><path style="opacity:1" fill="#fefffe" d="M 166.5,643.5 C 167.833,643.5 169.167,643.5 170.5,643.5C 170.5,658.167 170.5,672.833 170.5,687.5C 169.167,687.5 167.833,687.5 166.5,687.5C 166.5,672.833 166.5,658.167 166.5,643.5 Z"/></g>
<g><path style="opacity:1" fill="#fefffe" d="M 798.5,655.5 C 801.167,655.5 803.833,655.5 806.5,655.5C 806.5,656.833 806.5,658.167 806.5,659.5C 803.833,659.5 801.167,659.5 798.5,659.5C 798.5,658.167 798.5,656.833 798.5,655.5 Z"/></g>
<g><path style="opacity:1" fill="#fefffe" d="M 1114.5,671.5 C 1115.83,671.5 1117.17,671.5 1118.5,671.5C 1118.5,672.833 1118.5,674.167 1118.5,675.5C 1119.83,675.5 1121.17,675.5 1122.5,675.5C 1122.5,676.833 1122.5,678.167 1122.5,679.5C 1103.83,679.5 1085.17,679.5 1066.5,679.5C 1066.5,680.833 1066.5,682.167 1066.5,683.5C 1067.83,683.5 1069.17,683.5 1070.5,683.5C 1070.5,684.833 1070.5,686.167 1070.5,687.5C 1071.83,687.5 1073.17,687.5 1074.5,687.5C 1074.5,688.833 1074.5,690.167 1074.5,691.5C 1075.83,691.5 1077.17,691.5 1078.5,691.5C 1078.5,692.833 1078.5,694.167 1078.5,695.5C 1079.83,695.5 1081.17,695.5 1082.5,695.5C 1082.5,696.833 1082.5,698.167 1082.5,699.5C 1086.5,699.5 1090.5,699.5 1094.5,699.5C 1094.5,700.833 1094.5,702.167 1094.5,703.5C 1089.17,703.5 1083.83,703.5 1078.5,703.5C 1078.5,702.167 1078.5,700.833 1078.5,699.5C 1077.17,699.5 1075.83,699.5 1074.5,699.5C 1074.5,698.167 1074.5,696.833 1074.5,695.5C 1073.17,695.5 1071.83,695.5 1070.5,695.5C 1070.5,694.167 1070.5,692.833 1070.5,691.5C 1069.17,691.5 1067.83,691.5 1066.5,691.5C 1066.5,690.167 1066.5,688.833 1066.5,687.5C 1065.17,687.5 1063.83,687.5 1062.5,687.5C 1062.5,679.5 1062.5,671.5 1062.5,663.5C 1063.83,663.5 1065.17,663.5 1066.5,663.5C 1066.5,662.167 1066.5,660.833 1066.5,659.5C 1069.17,659.5 1071.83,659.5 1074.5,659.5C 1074.5,658.167 1074.5,656.833 1074.5,655.5C 1082.5,655.5 1090.5,655.5 1098.5,655.5C 1098.5,656.833 1098.5,658.167 1098.5,659.5C 1101.17,659.5 1103.83,659.5 1106.5,659.5C 1106.5,660.833 1106.5,662.167 1106.5,663.5C 1107.83,663.5 1109.17,663.5 1110.5,663.5C 1110.5,664.833 1110.5,666.167 1110.5,667.5C 1111.83,667.5 1113.17,667.5 1114.5,667.5C 1114.5,668.833 1114.5,670.167 1114.5,671.5 Z M 1114.5,671.5 C 1114.5,672.833 1114.5,674.167 1114.5,675.5C 1098.5,675.5 1082.5,675.5 1066.5,675.5C 1066.5,672.833 1066.5,670.167 1066.5,667.5C 1067.83,667.5 1069.17,667.5 1070.5,667.5C 1070.5,666.167 1070.5,664.833 1070.5,663.5C 1073.17,663.5 1075.83,663.5 1078.5,663.5C 1078.5,662.167 1078.5,660.833 1078.5,659.5C 1083.83,659.5 1089.17,659.5 1094.5,659.5C 1094.5,660.833 1094.5,662.167 1094.5,663.5C 1097.17,663.5 1099.83,663.5 1102.5,663.5C 1102.5,664.833 1102.5,666.167 1102.5,667.5C 1103.83,667.5 1105.17,667.5 1106.5,667.5C 1106.5,668.833 1106.5,670.167 1106.5,671.5C 1109.17,671.5 1111.83,671.5 1114.5,671.5 Z"/></g>
<g><path style="opacity:1" fill="#fefffe" d="M 1194.5,687.5 C 1193.17,687.5 1191.83,687.5 1190.5,687.5C 1190.5,686.167 1190.5,684.833 1190.5,683.5C 1189.17,683.5 1187.83,683.5 1186.5,683.5C 1186.5,682.167 1186.5,680.833 1186.5,679.5C 1185.17,679.5 1183.83,679.5 1182.5,679.5C 1182.5,678.167 1182.5,676.833 1182.5,675.5C 1181.17,675.5 1179.83,675.5 1178.5,675.5C 1178.5,670.167 1178.5,664.833 1178.5,659.5C 1179.83,659.5 1181.17,659.5 1182.5,659.5C 1182.5,658.167 1182.5,656.833 1182.5,655.5C 1193.17,655.5 1203.83,655.5 1214.5,655.5C 1214.5,656.833 1214.5,658.167 1214.5,659.5C 1219.83,659.5 1225.17,659.5 1230.5,659.5C 1230.5,660.833 1230.5,662.167 1230.5,663.5C 1233.17,663.5 1235.83,663.5 1238.5,663.5C 1238.5,664.833 1238.5,666.167 1238.5,667.5C 1241.17,667.5 1243.83,667.5 1246.5,667.5C 1246.5,668.833 1246.5,670.167 1246.5,671.5C 1247.83,671.5 1249.17,671.5 1250.5,671.5C 1250.5,674.167 1250.5,676.833 1250.5,679.5C 1231.83,679.5 1213.17,679.5 1194.5,679.5C 1194.5,682.167 1194.5,684.833 1194.5,687.5 Z M 1186.5,659.5 C 1194.5,659.5 1202.5,659.5 1210.5,659.5C 1210.5,660.833 1210.5,662.167 1210.5,663.5C 1215.83,663.5 1221.17,663.5 1226.5,663.5C 1226.5,664.833 1226.5,666.167 1226.5,667.5C 1229.17,667.5 1231.83,667.5 1234.5,667.5C 1234.5,668.833 1234.5,670.167 1234.5,671.5C 1237.17,671.5 1239.83,671.5 1242.5,671.5C 1242.5,672.833 1242.5,674.167 1242.5,675.5C 1223.83,675.5 1205.17,675.5 1186.5,675.5C 1186.5,674.167 1186.5,672.833 1186.5,671.5C 1185.17,671.5 1183.83,671.5 1182.5,671.5C 1182.5,668.833 1182.5,666.167 1182.5,663.5C 1183.83,663.5 1185.17,663.5 1186.5,663.5C 1186.5,662.167 1186.5,660.833 1186.5,659.5 Z"/></g>
<g><path style="opacity:1" fill="#fefffe" d="M 302.5,731.5 C 302.5,732.833 302.5,734.167 302.5,735.5C 293.167,735.5 283.833,735.5 274.5,735.5C 274.5,734.167 274.5,732.833 274.5,731.5C 273.167,731.5 271.833,731.5 270.5,731.5C 270.5,730.167 270.5,728.833 270.5,727.5C 269.167,727.5 267.833,727.5 266.5,727.5C 266.5,726.167 266.5,724.833 266.5,723.5C 265.167,723.5 263.833,723.5 262.5,723.5C 262.5,719.5 262.5,715.5 262.5,711.5C 261.167,711.5 259.833,711.5 258.5,711.5C 258.5,702.167 258.5,692.833 258.5,683.5C 257.167,683.5 255.833,683.5 254.5,683.5C 254.5,676.833 254.5,670.167 254.5,663.5C 253.167,663.5 251.833,663.5 250.5,663.5C 250.5,662.167 250.5,660.833 250.5,659.5C 253.167,659.5 255.833,659.5 258.5,659.5C 258.5,666.167 258.5,672.833 258.5,679.5C 259.833,679.5 261.167,679.5 262.5,679.5C 262.5,688.833 262.5,698.167 262.5,707.5C 263.833,707.5 265.167,707.5 266.5,707.5C 266.5,711.5 266.5,715.5 266.5,719.5C 267.833,719.5 269.167,719.5 270.5,719.5C 270.5,720.833 270.5,722.167 270.5,723.5C 271.833,723.5 273.167,723.5 274.5,723.5C 274.5,724.833 274.5,726.167 274.5,727.5C 275.833,727.5 277.167,727.5 278.5,727.5C 278.5,728.833 278.5,730.167 278.5,731.5C 286.5,731.5 294.5,731.5 302.5,731.5 Z"/></g>
<g><path style="opacity:1" fill="#fefffe" d="M 806.5,659.5 C 809.167,659.5 811.833,659.5 814.5,659.5C 814.5,660.833 814.5,662.167 814.5,663.5C 815.833,663.5 817.167,663.5 818.5,663.5C 818.5,671.5 818.5,679.5 818.5,687.5C 817.167,687.5 815.833,687.5 814.5,687.5C 814.5,688.833 814.5,690.167 814.5,691.5C 813.167,691.5 811.833,691.5 810.5,691.5C 810.5,692.833 810.5,694.167 810.5,695.5C 809.167,695.5 807.833,695.5 806.5,695.5C 806.5,698.167 806.5,700.833 806.5,703.5C 805.167,703.5 803.833,703.5 802.5,703.5C 802.5,704.833 802.5,706.167 802.5,707.5C 801.167,707.5 799.833,707.5 798.5,707.5C 798.5,708.833 798.5,710.167 798.5,711.5C 795.833,711.5 793.167,711.5 790.5,711.5C 790.5,710.167 790.5,708.833 790.5,707.5C 791.833,707.5 793.167,707.5 794.5,707.5C 794.5,706.167 794.5,704.833 794.5,703.5C 795.833,703.5 797.167,703.5 798.5,703.5C 798.5,702.167 798.5,700.833 798.5,699.5C 799.833,699.5 801.167,699.5 802.5,699.5C 802.5,696.833 802.5,694.167 802.5,691.5C 803.833,691.5 805.167,691.5 806.5,691.5C 806.5,690.167 806.5,688.833 806.5,687.5C 807.833,687.5 809.167,687.5 810.5,687.5C 810.5,686.167 810.5,684.833 810.5,683.5C 811.833,683.5 813.167,683.5 814.5,683.5C 814.5,678.167 814.5,672.833 814.5,667.5C 813.167,667.5 811.833,667.5 810.5,667.5C 810.5,666.167 810.5,664.833 810.5,663.5C 809.167,663.5 807.833,663.5 806.5,663.5C 806.5,662.167 806.5,660.833 806.5,659.5 Z"/></g>
<g><path style="opacity:1" fill="#fefffe" d="M 622.5,663.5 C 650.5,663.5 678.5,663.5 706.5,663.5C 706.5,664.833 706.5,666.167 706.5,667.5C 679.833,667.5 653.167,667.5 626.5,667.5C 626.5,668.833 626.5,670.167 626.5,671.5C 619.833,671.5 613.167,671.5 606.5,671.5C 606.5,670.167 606.5,668.833 606.5,667.5C 611.833,667.5 617.167,667.5 622.5,667.5C 622.5,666.167 622.5,664.833 622.5,663.5 Z"/></g>
<g><path style="opacity:1" fill="#fefffe" d="M 322.5,715.5 C 322.5,712.833 322.5,710.167 322.5,707.5C 323.833,707.5 325.167,707.5 326.5,707.5C 326.5,706.167 326.5,704.833 326.5,703.5C 327.833,703.5 329.167,703.5 330.5,703.5C 330.5,702.167 330.5,700.833 330.5,699.5C 331.833,699.5 333.167,699.5 334.5,699.5C 334.5,695.5 334.5,691.5 334.5,687.5C 335.833,687.5 337.167,687.5 338.5,687.5C 338.5,680.833 338.5,674.167 338.5,667.5C 339.833,667.5 341.167,667.5 342.5,667.5C 342.5,675.5 342.5,683.5 342.5,691.5C 341.167,691.5 339.833,691.5 338.5,691.5C 338.5,695.5 338.5,699.5 338.5,703.5C 337.167,703.5 335.833,703.5 334.5,703.5C 334.5,704.833 334.5,706.167 334.5,707.5C 333.167,707.5 331.833,707.5 330.5,707.5C 330.5,708.833 330.5,710.167 330.5,711.5C 329.167,711.5 327.833,711.5 326.5,711.5C 326.5,712.833 326.5,714.167 326.5,715.5C 325.167,715.5 323.833,715.5 322.5,715.5 Z"/></g>
<g><path style="opacity:1" fill="#fefffe" d="M 870.5,679.5 C 871.833,679.5 873.167,679.5 874.5,679.5C 874.5,682.167 874.5,684.833 874.5,687.5C 875.833,687.5 877.167,687.5 878.5,687.5C 878.5,690.167 878.5,692.833 878.5,695.5C 881.167,695.5 883.833,695.5 886.5,695.5C 886.5,696.833 886.5,698.167 886.5,699.5C 887.833,699.5 889.167,699.5 890.5,699.5C 890.5,700.833 890.5,702.167 890.5,703.5C 894.5,703.5 898.5,703.5 902.5,703.5C 902.5,704.833 902.5,706.167 902.5,707.5C 910.5,707.5 918.5,707.5 926.5,707.5C 926.5,706.167 926.5,704.833 926.5,703.5C 927.833,703.5 929.167,703.5 930.5,703.5C 930.5,706.167 930.5,708.833 930.5,711.5C 919.833,711.5 909.167,711.5 898.5,711.5C 898.5,710.167 898.5,708.833 898.5,707.5C 894.5,707.5 890.5,707.5 886.5,707.5C 886.5,706.167 886.5,704.833 886.5,703.5C 885.167,703.5 883.833,703.5 882.5,703.5C 882.5,702.167 882.5,700.833 882.5,699.5C 879.833,699.5 877.167,699.5 874.5,699.5C 874.5,696.833 874.5,694.167 874.5,691.5C 873.167,691.5 871.833,691.5 870.5,691.5C 870.5,687.5 870.5,683.5 870.5,679.5 Z"/></g>
<g><path style="opacity:1" fill="#fefffe" d="M 170.5,687.5 C 171.833,687.5 173.167,687.5 174.5,687.5C 174.5,694.167 174.5,700.833 174.5,707.5C 175.833,707.5 177.167,707.5 178.5,707.5C 178.5,715.5 178.5,723.5 178.5,731.5C 179.833,731.5 181.167,731.5 182.5,731.5C 182.5,736.833 182.5,742.167 182.5,747.5C 181.167,747.5 179.833,747.5 178.5,747.5C 178.5,743.5 178.5,739.5 178.5,735.5C 177.167,735.5 175.833,735.5 174.5,735.5C 174.5,727.5 174.5,719.5 174.5,711.5C 173.167,711.5 171.833,711.5 170.5,711.5C 170.5,703.5 170.5,695.5 170.5,687.5 Z"/></g>
<g><path style="opacity:1" fill="#fefefe" d="M 1094.5,703.5 C 1102.5,703.5 1110.5,703.5 1118.5,703.5C 1118.5,702.167 1118.5,700.833 1118.5,699.5C 1122.5,699.5 1126.5,699.5 1130.5,699.5C 1130.5,698.167 1130.5,696.833 1130.5,695.5C 1133.17,695.5 1135.83,695.5 1138.5,695.5C 1138.5,692.833 1138.5,690.167 1138.5,687.5C 1139.83,687.5 1141.17,687.5 1142.5,687.5C 1142.5,691.5 1142.5,695.5 1142.5,699.5C 1139.83,699.5 1137.17,699.5 1134.5,699.5C 1134.5,700.833 1134.5,702.167 1134.5,703.5C 1130.5,703.5 1126.5,703.5 1122.5,703.5C 1122.5,704.833 1122.5,706.167 1122.5,707.5C 1113.17,707.5 1103.83,707.5 1094.5,707.5C 1094.5,706.167 1094.5,704.833 1094.5,703.5 Z"/></g>
<g><path style="opacity:1" fill="#fefffe" d="M 1194.5,687.5 C 1197.17,687.5 1199.83,687.5 1202.5,687.5C 1202.5,688.833 1202.5,690.167 1202.5,691.5C 1203.83,691.5 1205.17,691.5 1206.5,691.5C 1206.5,692.833 1206.5,694.167 1206.5,695.5C 1203.83,695.5 1201.17,695.5 1198.5,695.5C 1198.5,694.167 1198.5,692.833 1198.5,691.5C 1197.17,691.5 1195.83,691.5 1194.5,691.5C 1194.5,690.167 1194.5,688.833 1194.5,687.5 Z"/></g>
<g><path style="opacity:1" fill="#fefffe" d="M 1206.5,695.5 C 1210.5,695.5 1214.5,695.5 1218.5,695.5C 1218.5,696.833 1218.5,698.167 1218.5,699.5C 1231.83,699.5 1245.17,699.5 1258.5,699.5C 1258.5,698.167 1258.5,696.833 1258.5,695.5C 1261.17,695.5 1263.83,695.5 1266.5,695.5C 1266.5,694.167 1266.5,692.833 1266.5,691.5C 1269.17,691.5 1271.83,691.5 1274.5,691.5C 1274.5,692.833 1274.5,694.167 1274.5,695.5C 1273.17,695.5 1271.83,695.5 1270.5,695.5C 1270.5,696.833 1270.5,698.167 1270.5,699.5C 1267.83,699.5 1265.17,699.5 1262.5,699.5C 1262.5,700.833 1262.5,702.167 1262.5,703.5C 1246.5,703.5 1230.5,703.5 1214.5,703.5C 1214.5,702.167 1214.5,700.833 1214.5,699.5C 1211.83,699.5 1209.17,699.5 1206.5,699.5C 1206.5,698.167 1206.5,696.833 1206.5,695.5 Z"/></g>
<g><path style="opacity:1" fill="#fefffe" d="M 790.5,711.5 C 790.5,712.833 790.5,714.167 790.5,715.5C 789.167,715.5 787.833,715.5 786.5,715.5C 786.5,716.833 786.5,718.167 786.5,719.5C 785.167,719.5 783.833,719.5 782.5,719.5C 782.5,716.833 782.5,714.167 782.5,711.5C 785.167,711.5 787.833,711.5 790.5,711.5 Z"/></g>
<g><path style="opacity:1" fill="#fefffe" d="M 322.5,715.5 C 322.5,718.167 322.5,720.833 322.5,723.5C 319.833,723.5 317.167,723.5 314.5,723.5C 314.5,722.167 314.5,720.833 314.5,719.5C 315.833,719.5 317.167,719.5 318.5,719.5C 318.5,718.167 318.5,716.833 318.5,715.5C 319.833,715.5 321.167,715.5 322.5,715.5 Z"/></g>
<g><path style="opacity:1" fill="#fefffe" d="M 782.5,719.5 C 782.5,722.167 782.5,724.833 782.5,727.5C 781.167,727.5 779.833,727.5 778.5,727.5C 778.5,728.833 778.5,730.167 778.5,731.5C 777.167,731.5 775.833,731.5 774.5,731.5C 774.5,728.833 774.5,726.167 774.5,723.5C 775.833,723.5 777.167,723.5 778.5,723.5C 778.5,722.167 778.5,720.833 778.5,719.5C 779.833,719.5 781.167,719.5 782.5,719.5 Z"/></g>
<g><path style="opacity:1" fill="#fefffe" d="M 314.5,723.5 C 314.5,724.833 314.5,726.167 314.5,727.5C 313.167,727.5 311.833,727.5 310.5,727.5C 310.5,728.833 310.5,730.167 310.5,731.5C 307.833,731.5 305.167,731.5 302.5,731.5C 302.5,730.167 302.5,728.833 302.5,727.5C 303.833,727.5 305.167,727.5 306.5,727.5C 306.5,726.167 306.5,724.833 306.5,723.5C 309.167,723.5 311.833,723.5 314.5,723.5 Z"/></g>
<g><path style="opacity:1" fill="#fefffe" d="M 182.5,747.5 C 183.833,747.5 185.167,747.5 186.5,747.5C 186.5,754.167 186.5,760.833 186.5,767.5C 185.167,767.5 183.833,767.5 182.5,767.5C 182.5,760.833 182.5,754.167 182.5,747.5 Z"/></g>
<g><path style="opacity:1" fill="#fefefe" d="M 362.5,815.5 C 363.833,815.5 365.167,815.5 366.5,815.5C 366.5,816.833 366.5,818.167 366.5,819.5C 375.833,819.5 385.167,819.5 394.5,819.5C 394.5,820.833 394.5,822.167 394.5,823.5C 509.167,823.5 623.833,823.5 738.5,823.5C 738.5,824.833 738.5,826.167 738.5,827.5C 769.167,827.5 799.833,827.5 830.5,827.5C 830.5,828.833 830.5,830.167 830.5,831.5C 854.5,831.5 878.5,831.5 902.5,831.5C 902.5,832.833 902.5,834.167 902.5,835.5C 922.5,835.5 942.5,835.5 962.5,835.5C 962.5,836.833 962.5,838.167 962.5,839.5C 986.5,839.5 1010.5,839.5 1034.5,839.5C 1034.5,840.833 1034.5,842.167 1034.5,843.5C 1059.83,843.5 1085.17,843.5 1110.5,843.5C 1110.5,844.833 1110.5,846.167 1110.5,847.5C 1137.17,847.5 1163.83,847.5 1190.5,847.5C 1190.5,848.833 1190.5,850.167 1190.5,851.5C 1227.83,851.5 1265.17,851.5 1302.5,851.5C 1302.5,852.833 1302.5,854.167 1302.5,855.5C 1303.83,855.5 1305.17,855.5 1306.5,855.5C 1306.5,856.833 1306.5,858.167 1306.5,859.5C 1307.83,859.5 1309.17,859.5 1310.5,859.5C 1310.5,860.833 1310.5,862.167 1310.5,863.5C 1291.83,863.5 1273.17,863.5 1254.5,863.5C 1254.5,864.833 1254.5,866.167 1254.5,867.5C 1213.17,867.5 1171.83,867.5 1130.5,867.5C 1130.5,868.833 1130.5,870.167 1130.5,871.5C 1099.83,871.5 1069.17,871.5 1038.5,871.5C 1038.5,872.833 1038.5,874.167 1038.5,875.5C 1011.83,875.5 985.167,875.5 958.5,875.5C 958.5,876.833 958.5,878.167 958.5,879.5C 939.833,879.5 921.167,879.5 902.5,879.5C 902.5,880.833 902.5,882.167 902.5,883.5C 886.5,883.5 870.5,883.5 854.5,883.5C 854.5,884.833 854.5,886.167 854.5,887.5C 837.167,887.5 819.833,887.5 802.5,887.5C 802.5,888.833 802.5,890.167 802.5,891.5C 789.167,891.5 775.833,891.5 762.5,891.5C 762.5,892.833 762.5,894.167 762.5,895.5C 753.167,895.5 743.833,895.5 734.5,895.5C 734.5,896.833 734.5,898.167 734.5,899.5C 722.5,899.5 710.5,899.5 698.5,899.5C 698.5,900.833 698.5,902.167 698.5,903.5C 685.167,903.5 671.833,903.5 658.5,903.5C 658.5,904.833 658.5,906.167 658.5,907.5C 649.167,907.5 639.833,907.5 630.5,907.5C 630.5,908.833 630.5,910.167 630.5,911.5C 622.5,911.5 614.5,911.5 606.5,911.5C 606.5,912.833 606.5,914.167 606.5,915.5C 599.833,915.5 593.167,915.5 586.5,915.5C 586.5,916.833 586.5,918.167 586.5,919.5C 577.167,919.5 567.833,919.5 558.5,919.5C 558.5,920.833 558.5,922.167 558.5,923.5C 554.5,923.5 550.5,923.5 546.5,923.5C 546.5,924.833 546.5,926.167 546.5,927.5C 539.833,927.5 533.167,927.5 526.5,927.5C 526.5,928.833 526.5,930.167 526.5,931.5C 519.833,931.5 513.167,931.5 506.5,931.5C 506.5,932.833 506.5,934.167 506.5,935.5C 501.167,935.5 495.833,935.5 490.5,935.5C 490.5,936.833 490.5,938.167 490.5,939.5C 486.5,939.5 482.5,939.5 478.5,939.5C 478.5,940.833 478.5,942.167 478.5,943.5C 474.5,943.5 470.5,943.5 466.5,943.5C 466.5,944.833 466.5,946.167 466.5,947.5C 471.833,947.5 477.167,947.5 482.5,947.5C 482.5,948.833 482.5,950.167 482.5,951.5C 595.833,951.5 709.167,951.5 822.5,951.5C 822.5,952.833 822.5,954.167 822.5,955.5C 850.5,955.5 878.5,955.5 906.5,955.5C 906.5,956.833 906.5,958.167 906.5,959.5C 935.833,959.5 965.167,959.5 994.5,959.5C 994.5,960.833 994.5,962.167 994.5,963.5C 1013.17,963.5 1031.83,963.5 1050.5,963.5C 1050.5,964.833 1050.5,966.167 1050.5,967.5C 1051.83,967.5 1053.17,967.5 1054.5,967.5C 1054.5,968.833 1054.5,970.167 1054.5,971.5C 1034.5,971.5 1014.5,971.5 994.5,971.5C 994.5,970.167 994.5,968.833 994.5,967.5C 965.167,967.5 935.833,967.5 906.5,967.5C 906.5,966.167 906.5,964.833 906.5,963.5C 878.5,963.5 850.5,963.5 822.5,963.5C 822.5,962.167 822.5,960.833 822.5,959.5C 709.167,959.5 595.833,959.5 482.5,959.5C 482.5,958.167 482.5,956.833 482.5,955.5C 467.833,955.5 453.167,955.5 438.5,955.5C 438.5,952.833 438.5,950.167 438.5,947.5C 439.833,947.5 441.167,947.5 442.5,947.5C 442.5,946.167 442.5,944.833 442.5,943.5C 445.167,943.5 447.833,943.5 450.5,943.5C 450.5,942.167 450.5,940.833 450.5,939.5C 454.5,939.5 458.5,939.5 462.5,939.5C 462.5,938.167 462.5,936.833 462.5,935.5C 466.5,935.5 470.5,935.5 474.5,935.5C 474.5,934.167 474.5,932.833 474.5,931.5C 478.5,931.5 482.5,931.5 486.5,931.5C 486.5,930.167 486.5,928.833 486.5,927.5C 491.833,927.5 497.167,927.5 502.5,927.5C 502.5,926.167 502.5,924.833 502.5,923.5C 509.167,923.5 515.833,923.5 522.5,923.5C 522.5,922.167 522.5,920.833 522.5,919.5C 529.167,919.5 535.833,919.5 542.5,919.5C 542.5,918.167 542.5,916.833 542.5,915.5C 546.5,915.5 550.5,915.5 554.5,915.5C 554.5,914.167 554.5,912.833 554.5,911.5C 563.833,911.5 573.167,911.5 582.5,911.5C 582.5,910.167 582.5,908.833 582.5,907.5C 589.167,907.5 595.833,907.5 602.5,907.5C 602.5,906.167 602.5,904.833 602.5,903.5C 611.833,903.5 621.167,903.5 630.5,903.5C 630.5,902.167 630.5,900.833 630.5,899.5C 639.833,899.5 649.167,899.5 658.5,899.5C 658.5,898.167 658.5,896.833 658.5,895.5C 670.5,895.5 682.5,895.5 694.5,895.5C 694.5,894.167 694.5,892.833 694.5,891.5C 706.5,891.5 718.5,891.5 730.5,891.5C 730.5,890.167 730.5,888.833 730.5,887.5C 739.833,887.5 749.167,887.5 758.5,887.5C 758.5,886.167 758.5,884.833 758.5,883.5C 771.833,883.5 785.167,883.5 798.5,883.5C 798.5,882.167 798.5,880.833 798.5,879.5C 815.833,879.5 833.167,879.5 850.5,879.5C 850.5,878.167 850.5,876.833 850.5,875.5C 866.5,875.5 882.5,875.5 898.5,875.5C 898.5,874.167 898.5,872.833 898.5,871.5C 917.167,871.5 935.833,871.5 954.5,871.5C 954.5,870.167 954.5,868.833 954.5,867.5C 981.167,867.5 1007.83,867.5 1034.5,867.5C 1034.5,866.167 1034.5,864.833 1034.5,863.5C 1065.17,863.5 1095.83,863.5 1126.5,863.5C 1126.5,862.167 1126.5,860.833 1126.5,859.5C 1147.83,859.5 1169.17,859.5 1190.5,859.5C 1190.5,858.167 1190.5,856.833 1190.5,855.5C 1163.83,855.5 1137.17,855.5 1110.5,855.5C 1110.5,854.167 1110.5,852.833 1110.5,851.5C 1085.17,851.5 1059.83,851.5 1034.5,851.5C 1034.5,850.167 1034.5,848.833 1034.5,847.5C 1010.5,847.5 986.5,847.5 962.5,847.5C 962.5,846.167 962.5,844.833 962.5,843.5C 942.5,843.5 922.5,843.5 902.5,843.5C 902.5,842.167 902.5,840.833 902.5,839.5C 878.5,839.5 854.5,839.5 830.5,839.5C 830.5,838.167 830.5,836.833 830.5,835.5C 799.833,835.5 769.167,835.5 738.5,835.5C 738.5,834.167 738.5,832.833 738.5,831.5C 622.5,831.5 506.5,831.5 390.5,831.5C 390.5,830.167 390.5,828.833 390.5,827.5C 379.833,827.5 369.167,827.5 358.5,827.5C 358.5,824.833 358.5,822.167 358.5,819.5C 359.833,819.5 361.167,819.5 362.5,819.5C 362.5,818.167 362.5,816.833 362.5,815.5 Z"/></g>
</svg>
