<?xml version="1.0" encoding="UTF-8"?>
<!DOCTYPE svg PUBLIC "-//W3C//DTD SVG 1.1//EN" "http://www.w3.org/Graphics/SVG/1.1/DTD/svg11.dtd">
<svg xmlns="http://www.w3.org/2000/svg" version="1.1" width="250px" height="128px" style="shape-rendering:geometricPrecision; text-rendering:geometricPrecision; image-rendering:optimizeQuality; fill-rule:evenodd; clip-rule:evenodd" xmlns:xlink="http://www.w3.org/1999/xlink">
<g><path style="opacity:1" fill="#dddddd" d="M 10.5,15.5 C 10.6716,16.4916 10.3382,17.1583 9.5,17.5C 5.19879,12.92 3.19879,7.58665 3.5,1.5C 6.21996,6.00638 8.5533,10.673 10.5,15.5 Z"/></g>
<g><path style="opacity:1" fill="#d3d3d3" d="M 218.5,17.5 C 217.662,17.8417 217.328,18.5084 217.5,19.5C 216.049,15.6872 215.216,11.6872 215,7.5C 215.333,7.16667 215.667,6.83333 216,6.5C 217.154,10.104 217.987,13.7707 218.5,17.5 Z"/></g>
<g><path style="opacity:1" fill="#dadada" d="M 108.5,30.5 C 108.5,29.8333 108.167,29.5 107.5,29.5C 110.624,21.5827 115.457,14.916 122,9.5C 127.109,12.792 127.942,17.1253 124.5,22.5C 123.833,23.8333 123.167,23.8333 122.5,22.5C 125.085,18.517 124.919,14.8503 122,11.5C 116.495,17.1973 111.995,23.5307 108.5,30.5 Z"/></g>
<g><path style="opacity:1" fill="#d5d5d5" d="M 158.5,19.5 C 161.745,20.8189 162.078,22.6523 159.5,25C 160.308,25.3076 160.975,25.8076 161.5,26.5C 159.167,27.8333 156.833,27.8333 154.5,26.5C 155.838,24.1356 157.171,21.8023 158.5,19.5 Z"/></g>
<g><path style="opacity:1" fill="#d9d9d9" d="M 10.5,15.5 C 14.3592,23.0299 19.6925,29.3633 26.5,34.5C 25.8333,34.5 25.5,34.8333 25.5,35.5C 25.1667,35.5 24.8333,35.5 24.5,35.5C 23.7377,33.7376 22.4044,32.7376 20.5,32.5C 19.307,30.9459 18.1404,29.2792 17,27.5C 16.31,26.2617 15.81,26.2617 15.5,27.5C 14.8333,27.5 14.5,27.8333 14.5,28.5C 13.0367,24.7922 11.37,21.1255 9.5,17.5C 10.3382,17.1583 10.6716,16.4916 10.5,15.5 Z"/></g>
<g><path style="opacity:1" fill="#d8d8d8" d="M 185.5,46.5 C 184.662,46.1583 184.328,45.4916 184.5,44.5C 186.422,34.8989 189.256,25.5656 193,16.5C 195.54,15.1235 197.54,15.7902 199,18.5C 199.808,20.5787 199.641,22.5787 198.5,24.5C 198.001,21.7827 196.835,19.4494 195,17.5C 191.061,26.9243 187.895,36.5909 185.5,46.5 Z"/></g>
<g><path style="opacity:1" fill="#dfdfdf" d="M 218.5,17.5 C 220.171,23.4987 220.505,29.4987 219.5,35.5C 219.5,38.8333 219.5,42.1667 219.5,45.5C 219.515,49.5598 219.015,53.5598 218,57.5C 217.107,58.7112 216.274,58.7112 215.5,57.5C 217.603,50.5132 218.603,43.3465 218.5,36C 218.254,30.4887 217.921,24.9887 217.5,19.5C 217.328,18.5084 217.662,17.8417 218.5,17.5 Z"/></g>
<g><path style="opacity:1" fill="#d9d9d9" d="M 221.5,39.5 C 220.766,38.2921 220.433,36.9587 220.5,35.5C 224.037,30.6448 228.87,27.9781 235,27.5C 237.581,28.3899 238.914,30.0566 239,32.5C 236.261,29.2527 233.094,28.7527 229.5,31C 225.182,32.4787 222.515,35.312 221.5,39.5 Z"/></g>
<g><path style="opacity:1" fill="#e2e2e2" d="M 107.5,29.5 C 108.167,29.5 108.5,29.8333 108.5,30.5C 104.387,44.9899 109.72,51.6566 124.5,50.5C 121.375,51.4794 118.042,51.8128 114.5,51.5C 110.255,50.4244 107.422,47.7578 106,43.5C 105.233,38.5743 105.733,33.9076 107.5,29.5 Z"/></g>
<g><path style="opacity:1" fill="#dbdbdb" d="M 15.5,27.5 C 16.6675,31.1963 17.8342,34.8629 19,38.5C 19.6514,36.765 19.4847,35.0983 18.5,33.5C 18.9569,32.7025 19.6236,32.3691 20.5,32.5C 20.2148,34.288 20.5481,35.9547 21.5,37.5C 22.1818,36.7573 22.8485,36.0906 23.5,35.5C 23.5,36.5 23.5,37.5 23.5,38.5C 22.8333,38.5 22.5,38.8333 22.5,39.5C 21.1667,40.1667 21.1667,40.8333 22.5,41.5C 22.1667,42.1667 21.8333,42.8333 21.5,43.5C 21.5,44.1667 21.1667,44.5 20.5,44.5C 20.719,43.325 20.3857,42.325 19.5,41.5C 18.5481,43.0453 18.2148,44.712 18.5,46.5C 17.0597,40.6449 15.7264,34.6449 14.5,28.5C 14.5,27.8333 14.8333,27.5 15.5,27.5 Z"/></g>
<g><path style="opacity:1" fill="#d1d1d1" d="M 135.5,26.5 C 136.497,26.4701 137.164,26.9701 137.5,28C 136.55,35.4558 136.216,42.9558 136.5,50.5C 140.007,50.6933 143.34,50.0267 146.5,48.5C 146.833,48.8333 147.167,49.1667 147.5,49.5C 146.619,50.9705 145.286,51.8038 143.5,52C 140.77,52.7284 138.103,52.5617 135.5,51.5C 134.259,43.1519 134.259,34.8186 135.5,26.5 Z"/></g>
<g><path style="opacity:1" fill="#dadada" d="M 155.5,33.5 C 159.98,33.2681 164.313,33.9348 168.5,35.5C 164.567,35.8301 160.567,35.9967 156.5,36C 154.152,36.1102 152.652,37.2769 152,39.5C 151.5,39 151,38.5 150.5,38C 151.445,35.5537 153.111,34.0537 155.5,33.5 Z"/></g>
<g><path style="opacity:1" fill="#e4e4e4" d="M 25.5,35.5 C 25.5,34.8333 25.8333,34.5 26.5,34.5C 29.7115,36.5161 33.2115,37.8495 37,38.5C 40.5431,37.3131 44.0431,35.9798 47.5,34.5C 47.8333,34.8333 48.1667,35.1667 48.5,35.5C 47.2634,36.2807 46.2634,37.2807 45.5,38.5C 40.3069,39.4339 35.6402,41.4339 31.5,44.5C 30.1667,43.8333 30.1667,43.1667 31.5,42.5C 33.1958,42.3146 34.5291,41.4813 35.5,40C 31.7642,39.297 28.4309,37.797 25.5,35.5 Z"/></g>
<g><path style="opacity:1" fill="#e6e6e6" d="M 158.5,36.5 C 160.436,40.7147 161.103,45.3814 160.5,50.5C 159.448,50.6495 158.448,50.4828 157.5,50C 159.825,45.6972 160.159,41.1972 158.5,36.5 Z"/></g>
<g><path style="opacity:1" fill="#ebebeb" d="M 23.5,35.5 C 23.8333,35.5 24.1667,35.5 24.5,35.5C 24.6432,38.0974 25.4766,40.4308 27,42.5C 28.3333,41.8333 29.6667,41.1667 31,40.5C 31.4643,41.0944 31.631,41.7611 31.5,42.5C 30.1667,43.1667 30.1667,43.8333 31.5,44.5C 30.5244,45.8149 29.5244,47.1482 28.5,48.5C 33.1525,60.9874 41.8192,69.1541 54.5,73C 63.7922,74.2313 73.1255,74.7313 82.5,74.5C 84.099,74.2322 85.4324,74.5655 86.5,75.5C 74.7707,75.9122 63.1041,75.4122 51.5,74C 39.6854,69.5841 31.5187,61.4174 27,49.5C 25.2765,51.7167 23.7765,54.05 22.5,56.5C 21.8333,56.5 21.5,56.1667 21.5,55.5C 21.5,55.1667 21.5,54.8333 21.5,54.5C 22.1667,54.5 22.5,54.1667 22.5,53.5C 22.7373,52.209 22.404,51.209 21.5,50.5C 20.5655,51.5676 20.2322,52.901 20.5,54.5C 19.8333,53.1667 19.1667,51.8333 18.5,50.5C 18.5,49.1667 18.5,47.8333 18.5,46.5C 18.2148,44.712 18.5481,43.0453 19.5,41.5C 20.3857,42.325 20.719,43.325 20.5,44.5C 19.3744,45.8583 19.3744,47.1916 20.5,48.5C 22.3788,46.9303 22.7122,45.2637 21.5,43.5C 21.8333,42.8333 22.1667,42.1667 22.5,41.5C 22.5,40.8333 22.5,40.1667 22.5,39.5C 23.1667,39.5 23.5,39.1667 23.5,38.5C 23.5,37.5 23.5,36.5 23.5,35.5 Z M 21.5,43.5 C 22.7122,45.2637 22.3788,46.9303 20.5,48.5C 19.3744,47.1916 19.3744,45.8583 20.5,44.5C 21.1667,44.5 21.5,44.1667 21.5,43.5 Z"/></g>
<g><path style="opacity:0.932" fill="#878787" d="M 219.5,35.5 C 219.833,35.5 220.167,35.5 220.5,35.5C 220.433,36.9587 220.766,38.2921 221.5,39.5C 220.833,39.5 220.5,39.8333 220.5,40.5C 220.5,40.8333 220.5,41.1667 220.5,41.5C 220.768,43.099 220.434,44.4324 219.5,45.5C 219.5,42.1667 219.5,38.8333 219.5,35.5 Z"/></g>
<g><path style="opacity:1" fill="#cecece" d="M 220.5,41.5 C 220.5,41.1667 220.5,40.8333 220.5,40.5C 225.032,41.8402 228.032,44.8402 229.5,49.5C 228.662,49.8417 228.328,50.5084 228.5,51.5C 227.002,47.3245 224.335,43.9912 220.5,41.5 Z"/></g>
<g><path style="opacity:1" fill="#d6d6d6" d="M 184.5,44.5 C 184.328,45.4916 184.662,46.1583 185.5,46.5C 185.178,48.7224 185.845,50.5557 187.5,52C 192.623,52.8042 197.623,53.8042 202.5,55C 195.777,56.3356 189.61,55.1689 184,51.5C 183.204,48.9615 183.371,46.6282 184.5,44.5 Z"/></g>
<g><path style="opacity:1" fill="#a1a1a1" d="M 124.5,50.5 C 125.043,50.56 125.376,50.8933 125.5,51.5C 121.685,52.8077 118.019,52.8077 114.5,51.5C 118.042,51.8128 121.375,51.4794 124.5,50.5 Z"/></g>
<g><path style="opacity:0.288" fill="#888888" d="M 21.5,50.5 C 21.2627,51.791 21.596,52.791 22.5,53.5C 22.5,54.1667 22.1667,54.5 21.5,54.5C 21.1667,54.5 20.8333,54.5 20.5,54.5C 20.2322,52.901 20.5655,51.5676 21.5,50.5 Z"/></g>
<g><path style="opacity:1" fill="#d2d2d2" d="M 153.5,51.5 C 160.489,50.907 167.156,52.0736 173.5,55C 175.794,59.0248 175.127,59.3582 171.5,56C 165.761,53.6085 159.928,53.1085 154,54.5C 152.272,53.6477 152.105,52.6477 153.5,51.5 Z"/></g>
<g><path style="opacity:1" fill="#dadada" d="M 18.5,50.5 C 19.1667,51.8333 19.8333,53.1667 20.5,54.5C 20.5,55.1667 20.8333,55.5 21.5,55.5C 21.5,56.1667 21.8333,56.5 22.5,56.5C 21.5971,64.6716 20.0971,72.6716 18,80.5C 17.5,80 17,79.5 16.5,79C 17.2489,77.2663 17.7489,75.433 18,73.5C 18.4997,65.8406 18.6664,58.1739 18.5,50.5 Z"/></g>
<g><path style="opacity:1" fill="#dadada" d="M 229.5,49.5 C 230.735,54.8132 230.735,60.1466 229.5,65.5C 228.507,60.8804 228.173,56.2137 228.5,51.5C 228.328,50.5084 228.662,49.8417 229.5,49.5 Z"/></g>
<g><path style="opacity:1" fill="#dedede" d="M 86.5,75.5 C 85.4324,74.5655 84.099,74.2322 82.5,74.5C 90.8988,73.1393 99.3988,71.806 108,70.5C 108.333,70.8333 108.667,71.1667 109,71.5C 112.616,70.287 116.282,69.287 120,68.5C 121.487,69.2529 121.654,70.0862 120.5,71C 108.931,72.9655 97.5972,74.4655 86.5,75.5 Z"/></g>
<g><path style="opacity:1" fill="#d3d3d3" d="M 173.5,85.5 C 173.5,84.8333 173.167,84.5 172.5,84.5C 181.078,79.7802 181.078,74.6135 172.5,69C 169.125,67.679 165.791,67.179 162.5,67.5C 169.225,65.3447 175.058,67.0113 180,72.5C 182.308,79.2846 180.142,83.6179 173.5,85.5 Z"/></g>
<g><path style="opacity:1" fill="#e2e2e2" d="M 172.5,84.5 C 173.167,84.5 173.5,84.8333 173.5,85.5C 176.632,87.0857 180.632,87.919 185.5,88C 186.451,88.7175 186.617,89.5509 186,90.5C 183.539,89.7819 181.039,89.1153 178.5,88.5C 177.914,88.7093 177.414,89.0426 177,89.5C 169.86,87.6316 162.693,86.9649 155.5,87.5C 156.025,86.8076 156.692,86.3076 157.5,86C 162.519,85.5892 167.519,85.0892 172.5,84.5 Z"/></g>
<g><path style="opacity:1" fill="#dedede" d="M 124.5,106.5 C 123.5,106.5 122.5,106.5 121.5,106.5C 121.5,108.5 121.5,110.5 121.5,112.5C 121.852,115.073 121.352,117.406 120,119.5C 119.13,118.892 118.63,118.059 118.5,117C 118.937,107.665 120.437,98.4983 123,89.5C 124.826,84.5983 128.16,82.5983 133,83.5C 134.842,89.8833 134.842,96.2167 133,102.5C 130.553,104.808 127.719,106.141 124.5,106.5 Z M 129.5,84.5 C 131.085,85.4737 132.085,86.9737 132.5,89C 132.517,92.6334 132.35,96.4668 132,100.5C 131.5,101.667 130.667,102.5 129.5,103C 127.167,103.667 124.833,103.667 122.5,103C 123.259,98.5288 124.092,94.0288 125,89.5C 126.025,87.313 127.525,85.6464 129.5,84.5 Z"/></g>
<g><path style="opacity:1" fill="#e0e0e0" d="M 207.5,116.5 C 209.5,115.833 211.5,115.167 213.5,114.5C 214.376,114.631 215.043,114.298 215.5,113.5C 214.993,110.578 213.993,107.911 212.5,105.5C 212.5,104.833 212.833,104.5 213.5,104.5C 213.349,98.6681 213.349,92.6681 213.5,86.5C 215.055,95.4627 216.555,104.463 218,113.5C 226.757,118.913 226.423,119.58 217,115.5C 213.895,116.367 210.728,116.701 207.5,116.5 Z"/></g>
<g><path style="opacity:1" fill="#dbdbdb" d="M 149.5,99.5 C 155.01,100.506 157.677,103.839 157.5,109.5C 153.563,109.207 149.73,109.54 146,110.5C 145.094,116.1 147.594,118.767 153.5,118.5C 144.681,120.168 141.514,116.502 144,107.5C 145.745,104.751 147.578,102.084 149.5,99.5 Z M 149.5,101.5 C 152.584,102.082 154.584,103.915 155.5,107C 152.773,107.818 150.106,107.652 147.5,106.5C 148.456,104.925 149.123,103.258 149.5,101.5 Z"/></g>
<g><path style="opacity:1" fill="#cfcfcf" d="M 176.5,113.5 C 176.158,112.662 175.492,112.328 174.5,112.5C 177.801,110.519 179.468,107.852 179.5,104.5C 181.146,106.392 181.48,108.392 180.5,110.5C 181.569,115.623 184.736,117.956 190,117.5C 192.042,117.385 194.042,117.051 196,116.5C 197.059,116.63 197.892,117.13 198.5,118C 192.655,120.248 186.988,119.915 181.5,117C 180.228,115.693 179.228,114.193 178.5,112.5C 177.817,112.863 177.15,113.196 176.5,113.5 Z"/></g>
<g><path style="opacity:1" fill="#d8d8d8" d="M 213.5,104.5 C 212.833,104.5 212.5,104.833 212.5,105.5C 207.841,104.175 204.841,106.009 203.5,111C 203.82,112.653 204.82,113.653 206.5,114C 208.81,114.497 211.143,114.663 213.5,114.5C 211.5,115.167 209.5,115.833 207.5,116.5C 200.238,113.672 199.571,109.505 205.5,104C 208.396,101.978 211.063,102.144 213.5,104.5 Z"/></g>
<g><path style="opacity:1" fill="#d8d8d8" d="M 124.5,106.5 C 130.5,110.169 135.166,115.169 138.5,121.5C 133.826,117.028 128.659,112.361 123,107.5C 122.802,109.382 122.302,111.048 121.5,112.5C 121.5,110.5 121.5,108.5 121.5,106.5C 122.5,106.5 123.5,106.5 124.5,106.5 Z"/></g>
<g><path style="opacity:1" fill="#dbdbdb" d="M 174.5,112.5 C 175.492,112.328 176.158,112.662 176.5,113.5C 173.487,115.531 170.321,115.865 167,114.5C 166.846,107.162 170.346,104.495 177.5,106.5C 175.881,106.905 173.881,107.405 171.5,108C 169.393,109.264 168.393,111.097 168.5,113.5C 170.621,113.675 172.621,113.341 174.5,112.5 Z"/></g>
</svg>
